<?xml version="1.0" encoding="utf-8"?>
<!-- Generator: Adobe Illustrator 25.1.0, SVG Export Plug-In . SVG Version: 6.00 Build 0)  -->
<svg version="1.1" id="Layer_1" xmlns="http://www.w3.org/2000/svg" xmlns:xlink="http://www.w3.org/1999/xlink" x="0px" y="0px"
	 viewBox="0 0 232.2 72.5" style="enable-background:new 0 0 232.2 72.5;" xml:space="preserve">
<style type="text/css">
	.st0{fill:#3655D6;}
	.st1{fill:#D1D8DB;}
	.st2{fill:none;}
</style>
<g>
	<polygon class="st0" points="163.9,18.8 169.6,30.3 182.4,32.1 173.2,41.1 175.3,53.8 163.9,47.8 152.6,53.8 154.7,41.1 
		145.5,32.1 158.3,30.3 	"/>
	<polygon class="st0" points="116.1,18.8 121.8,30.3 134.5,32.1 125.3,41.1 127.5,53.8 116.1,47.8 104.7,53.8 106.9,41.1 97.7,32.1 
		110.4,30.3 	"/>
	<polygon class="st0" points="68.2,18.8 73.9,30.3 86.7,32.1 77.4,41.1 79.6,53.8 68.2,47.8 56.9,53.8 59,41.1 49.8,32.1 62.5,30.3 
			"/>
	<polygon class="st0" points="20.4,18.8 26.1,30.3 38.9,32.1 29.6,41.1 31.8,53.8 20.4,47.8 9.1,53.8 11.2,41.1 2,32.1 14.7,30.3 	
		"/>
	<g>
		<polygon class="st1" points="230.2,32.1 221.4,40.8 221.4,30.8 		"/>
		<polygon class="st1" points="223.2,53.8 221.4,52.8 221.4,42.9 		"/>
		<polygon class="st0" points="221.4,40.8 221,41.1 221.4,42.9 221.4,52.8 211.8,47.8 200.4,53.8 202.6,41.1 193.4,32.1 206.1,30.3 
			211.8,18.8 217.5,30.3 221.4,30.8 		"/>
		<line class="st2" x1="221.4" y1="42.9" x2="221.4" y2="40.8"/>
	</g>
</g>
</svg>
