<svg xmlns="http://www.w3.org/2000/svg" viewBox="0 0 440.99 362.07"><defs><style>.cls-1{fill:#8fc1ae;}.cls-2{fill:#1b67d8;}</style></defs><g id="Layer_2" data-name="Layer 2"><g id="Capa_1" data-name="Capa 1"><path class="cls-1" d="M335.06,228.16a51,51,0,1,0-51.39-88,184.15,184.15,0,0,1-21.8,52.2A153.42,153.42,0,0,1,335.06,228.16Z"/><path class="cls-1" d="M441,164.09a10.7,10.7,0,0,0-10.69-10.69H408.33a101.14,101.14,0,0,0-7.4-17.75l15.55-15.54a10.69,10.69,0,0,0,0-15.12L389.11,77.62a10.65,10.65,0,0,0-15.1,0L358.43,93.17a100.09,100.09,0,0,0-17.75-7.37v-22A10.67,10.67,0,0,0,330,53.16H291.3a10.51,10.51,0,0,0-6.74,2.58,145.53,145.53,0,0,1,5,38.55,185.91,185.91,0,0,1-2,26.42,66.27,66.27,0,0,1,23-4.32,67,67,0,0,1,36.21,123.37,152.81,152.81,0,0,1,31.17,52,11.11,11.11,0,0,0,3.54.68,10.66,10.66,0,0,0,7.56-3.13l27.38-27.37a10.74,10.74,0,0,0,0-15.12l-15.58-15.55a100.83,100.83,0,0,0,7.4-17.75h21.95A10.72,10.72,0,0,0,441,202.81Z"/><path class="cls-2" d="M356.22,301.41a129.36,129.36,0,0,0-111.11-87c-17,18-38,29.36-61.73,29.36s-44.77-11.4-61.71-29.36a129.38,129.38,0,0,0-111.15,87l-9.17,27a25.45,25.45,0,0,0,24.1,33.64H341.3a25.44,25.44,0,0,0,24.1-33.64Z"/><path class="cls-2" d="M101,94.29c0,60.59,36.88,125.6,82.35,125.6s82.37-65,82.37-125.6C265.75-31.31,101-31.55,101,94.29Z"/></g></g></svg>