<?xml version="1.0" encoding="utf-8"?>
<!-- Generator: Adobe Illustrator 25.1.0, SVG Export Plug-In . SVG Version: 6.00 Build 0)  -->
<svg version="1.1" id="Layer_1" xmlns="http://www.w3.org/2000/svg" xmlns:xlink="http://www.w3.org/1999/xlink" x="0px" y="0px"
	 viewBox="0 0 100 100" style="enable-background:new 0 0 100 100;" xml:space="preserve">
<style type="text/css">
	.st0{fill:#4E2FB8;}
	.st1{fill:#FFFFFF;}
</style>
<g id="Layer_2_1_">
	<g id="Capa_1">
		<circle class="st0" cx="50" cy="50" r="50"/>
		<path class="st1" d="M36.5,39.2h-1.9v12.6l0,0V65c0,1,0.8,1.8,1.8,1.8c0,0,0,0,0,0h4V75c0,1.8,1.5,3.3,3.3,3.3
			c1.8,0,3.3-1.5,3.3-3.3l0,0v-8.1h6V75c0,1.8,1.5,3.3,3.3,3.3c1.8,0,3.3-1.5,3.3-3.3l0,0v-8.1h3.9c1,0,1.8-0.8,1.8-1.8c0,0,0,0,0,0
			V51.8l0,0V39.2H36.5z"/>
		<path class="st1" d="M70.2,38.1c-1.8,0-3.2,1.4-3.2,3.2V56c-0.1,1.8,1.3,3.3,3.1,3.4s3.3-1.3,3.4-3.1c0-0.1,0-0.2,0-0.3V41.4
			C73.4,39.6,72,38.1,70.2,38.1z"/>
		<path class="st1" d="M29.8,38.1c-1.8,0-3.2,1.4-3.2,3.2V56c-0.1,1.8,1.3,3.3,3.1,3.4c1.8,0.1,3.3-1.3,3.4-3.1c0-0.1,0-0.2,0-0.3
			V41.4C33,39.6,31.6,38.1,29.8,38.1z"/>
		<path class="st1" d="M57.4,25.9l2.6-3.7c0.1-0.1,0-0.2-0.2-0.3c-0.2-0.1-0.3-0.1-0.4-0.1l-2.7,3.8c-2.2-0.8-4.5-1.2-6.8-1.2
			c-2.3,0-4.6,0.3-6.8,1.1l-2.7-3.8c-0.1-0.1-0.2-0.1-0.4,0.1C40,22,39.9,22.1,40,22.2l2.6,3.7c-7.5,3.3-7.8,11.5-7.8,11.5h30.4
			C65.2,37.4,64.9,29.3,57.4,25.9z M43.3,32.6c-1,0-1.8-0.8-1.8-1.8s0.8-1.8,1.8-1.8c1,0,1.8,0.8,1.8,1.8c0,0,0,0,0,0
			C45.2,31.8,44.3,32.6,43.3,32.6L43.3,32.6z M56.7,32.6c-1,0-1.8-0.8-1.8-1.8c0-1,0.8-1.8,1.8-1.8c1,0,1.8,0.8,1.8,1.8c0,0,0,0,0,0
			C58.5,31.8,57.7,32.6,56.7,32.6C56.7,32.6,56.7,32.6,56.7,32.6z"/>
	</g>
</g>
</svg>
