<?xml version="1.0" encoding="utf-8"?>
<!-- Generator: Adobe Illustrator 25.1.0, SVG Export Plug-In . SVG Version: 6.00 Build 0)  -->
<svg version="1.1" id="Layer_1" xmlns="http://www.w3.org/2000/svg" xmlns:xlink="http://www.w3.org/1999/xlink" x="0px" y="0px"
	 viewBox="0 0 100 100" style="enable-background:new 0 0 100 100;" xml:space="preserve">
<style type="text/css">
	.st0{fill:#4E2FB8;}
	.st1{fill:#5637C0;}
	.st2{fill:#4A2BB4;}
	.st3{opacity:0.78;fill:#F2EFFF;enable-background:new    ;}
	.st4{opacity:0.78;fill:#B8A3FF;enable-background:new    ;}
	.st5{fill:#BAA6FF;}
</style>
<g>
	<g id="Layer_2_1_">
		<g id="Capa_1">
			<circle class="st0" cx="50" cy="50" r="50"/>
			<path class="st1" d="M16.5,26.2l33-11.8L83.5,26L78,69.8L49.5,85.5L21.5,70L16.5,26.2z"/>
			<polygon class="st2" points="49.6,52 49.6,37.7 49.7,37.5 56.6,52 			"/>
			<polygon class="st2" points="83.5,26 78,69.8 49.6,85.5 49.6,58.1 59.3,58.1 63.8,68.6 71.2,68.7 49.6,22.8 49.6,22.9 49.6,14.5 
							"/>
			<path class="st3" d="M49.6,22.9L29,68.6l7.7-0.1l4.1-10.3h8.7V52h-6l6-14.3L49.6,22.9z"/>
			<polygon class="st4" points="71.2,68.7 63.8,68.6 59.3,58.1 49.6,58.1 49.6,52 56.6,52 49.7,37.5 49.6,37.7 49.6,22.9 49.6,22.8 
							"/>
			<g>
				<path class="st5" d="M49.6,17.7l30.6,10.4l-5,39.8L49.6,82.1l-25.2-14l-4.6-39.8L49.6,17.7 M49.5,14.5L16.5,26.2L21.5,70
					l28,15.5L78,69.8L83.5,26L49.5,14.5L49.5,14.5z"/>
			</g>
		</g>
	</g>
</g>
</svg>
