<svg xmlns="http://www.w3.org/2000/svg" viewBox="0 0 512 465.84"><defs><style>.cls-1{fill:#8fc1ae;}.cls-2{fill:#1b67d8;}</style></defs><g id="Layer_2" data-name="Layer 2"><g id="Layer_1-2" data-name="Layer 1"><path id="Shape" class="cls-1" d="M256,365.72a119.51,119.51,0,0,0,105.27-64H150.73a119.51,119.51,0,0,0,105.27,64Z"/><path id="Shape-2" data-name="Shape" class="cls-2" d="M292.57,155.43a18.3,18.3,0,0,0-18.28-18.28H246.86v36.57h27.43A18.3,18.3,0,0,0,292.57,155.43Z"/><path id="Shape-3" data-name="Shape" class="cls-2" d="M173.71,156.92l-8.64,25.94h17.29Z"/><path id="Shape-4" data-name="Shape" class="cls-1" d="M100.57,301.72a118.75,118.75,0,0,1-27.27-3.28L45.07,310.07,67.72,365,106.31,349a9.16,9.16,0,0,1,11,3.2,168.36,168.36,0,0,0,41.38,41.37,9.15,9.15,0,0,1,3.2,11L145.93,443.1l54.87,22.74,15.94-38.53a9.17,9.17,0,0,1,10-5.51,164.88,164.88,0,0,0,58.4-.08,9.15,9.15,0,0,1,10.06,5.5l16,38.59,54.79-22.72-15.94-38.6a9.14,9.14,0,0,1,3.25-11,166.44,166.44,0,0,0,41.34-41.27,9.13,9.13,0,0,1,11-3.18l38.58,16L467,310.1l-20.53-8.54c-1,0-2,.15-3.08.15H381.52a136.88,136.88,0,0,1-251,0Z"/><path id="Shape-5" data-name="Shape" class="cls-2" d="M100.57,283.43H443.43a68.57,68.57,0,0,0,0-137.14h-.92a9.14,9.14,0,0,1-8.62-6.1,86.75,86.75,0,0,0-82.42-57.9c-.89,0-1.78,0-2.67.07a9.22,9.22,0,0,1-9.18-5.87,118.85,118.85,0,0,0-222.18.25A9.11,9.11,0,0,1,108,82.61a73.46,73.46,0,0,0-7.41-.32,100.57,100.57,0,0,0,0,201.14ZM320,118.86h54.86a9.15,9.15,0,0,1,0,18.29H356.57v91.42h18.29a9.15,9.15,0,0,1,0,18.29H320a9.15,9.15,0,0,1,0-18.29h18.29V137.15H320a9.15,9.15,0,0,1,0-18.29Zm-82.29,0h36.58a36.57,36.57,0,0,1,0,73.14H246.86v45.72a9.15,9.15,0,0,1-18.29,0V128A9.14,9.14,0,0,1,237.71,118.86Zm-91-39.46C166.89,19,217.29,18.29,219.43,18.29a9.14,9.14,0,0,1,0,18.28c-1.77,0-39.56,1.17-55.37,48.61a9.14,9.14,0,0,1-17.35-5.78ZM128.47,234.82,165,125.11a6.05,6.05,0,0,1,.32-.55,9.9,9.9,0,0,1,4.92-4.92c.2-.08.34-.24.54-.31a9.06,9.06,0,0,1,1-.13,7.84,7.84,0,0,1,3.73,0,9.06,9.06,0,0,1,1,.13c.2.07.34.23.54.31a9.9,9.9,0,0,1,4.92,4.92,6.05,6.05,0,0,1,.32.55L219,234.82a9.15,9.15,0,0,1-17.35,5.79l-13.15-39.46H159l-13.15,39.46a9.15,9.15,0,0,1-17.35-5.79Zm-63-126.33A9.15,9.15,0,1,1,73.3,125a64.27,64.27,0,0,0-36.73,57.83,62.86,62.86,0,0,0,14.14,40,9.14,9.14,0,1,1-14.2,11.51,82,82,0,0,1,29-125.84Z"/></g></g></svg>