<svg xmlns="http://www.w3.org/2000/svg" viewBox="0 0 448 448"><defs><style>.cls-1{fill:#1b67d8;}.cls-2{fill:#8fc1ae;}</style></defs><g id="Layer_2" data-name="Layer 2"><g id="Layer_1-2" data-name="Layer 1"><path class="cls-1" d="M0,360a7.88,7.88,0,0,0,7.44,8H440.56a7.87,7.87,0,0,0,7.44-8V336H0Zm216-16h16v16H216Z"/><path class="cls-1" d="M182.8,384l-5.36,32h93.12l-5.36-32Z"/><path class="cls-1" d="M156,432l-12,16H304l-12-16Z"/><circle class="cls-2" cx="224" cy="128" r="56"/><path class="cls-2" d="M133.52,160a100.3,100.3,0,0,0,3.84,9.44,16,16,0,0,1-1.28,16.24l-14.8,20.64,24.4,24.4,20.64-14.8a15.85,15.85,0,0,1,9.2-2.88,15.61,15.61,0,0,1,7,1.6,97.68,97.68,0,0,0,9.44,3.84A16.11,16.11,0,0,1,202.64,231l4.16,25h34.4l4.16-25A16.13,16.13,0,0,1,256,218.48a97.68,97.68,0,0,0,9.44-3.84,16,16,0,0,1,16.24,1.28l20.64,14.8,24.4-24.4-14.8-20.64a16,16,0,0,1-1.28-16.24,95.2,95.2,0,0,0,3.84-9.44A16.26,16.26,0,0,1,327,149.36l25-4.16V110.8l-25-4.16A16.26,16.26,0,0,1,314.48,96a95.2,95.2,0,0,0-3.84-9.44,16,16,0,0,1,1.28-16.24l14.8-20.64-24.4-24.4-20.64,14.8a16,16,0,0,1-16.24,1.28A97.68,97.68,0,0,0,256,37.52,16.13,16.13,0,0,1,245.36,25L241.2,0H206.8l-4.16,25A16.11,16.11,0,0,1,192,37.52a97.68,97.68,0,0,0-9.44,3.84,16,16,0,0,1-16.24-1.28l-20.64-14.8-24.4,24.4,14.8,20.64a16,16,0,0,1,1.28,16.24A100.3,100.3,0,0,0,133.52,96,16.23,16.23,0,0,1,121,106.64L96,110.8v34.4l25,4.16A16.23,16.23,0,0,1,133.52,160ZM320,120h16v16H320ZM232,240H216V224h16Zm65.54-27.15-11.31-11.31,11.31-11.32,11.31,11.32Zm0-169.7,11.31,11.31L297.54,65.78,286.23,54.46ZM216,16h16V32H216Zm8,40a72,72,0,1,1-72,72A72,72,0,0,1,224,56ZM150.47,43.15l11.31,11.31L150.47,65.78,139.15,54.46Zm0,147.07,11.31,11.32-11.31,11.31-11.32-11.31ZM112,120h16v16H112Z"/><circle class="cls-2" cx="408" cy="232" r="8"/><circle class="cls-2" cx="40" cy="232" r="8"/><circle class="cls-2" cx="104" cy="280" r="8"/><circle class="cls-2" cx="344" cy="280" r="8"/><path class="cls-1" d="M440.56,96H358a16,16,0,0,1,10,14.8V112h40a8,8,0,0,1,8,8v89.44a24,24,0,1,1-16,0V128H368v17.2A16,16,0,0,1,354.64,161l-25,4.16A114.3,114.3,0,0,1,325,176.32L339.68,197A16,16,0,0,1,338,217.68l-6.56,6.48,18.24,18.16A8.26,8.26,0,0,1,352,248v9.44a24,24,0,1,1-16,0v-6.16l-15.84-15.84L313.68,242A16,16,0,0,1,293,243.68L272.4,229c-3.68,1.76-7.36,3.28-11.12,4.64l-4.24,25A16,16,0,0,1,241.2,272H206.8A16.06,16.06,0,0,1,191,258.64l-4.16-25c-3.84-1.36-7.52-2.88-11.12-4.56L155,243.68A16,16,0,0,1,134.32,242l-6.48-6.56L112,251.28v6.16a24,24,0,1,1-16,0V248a8.31,8.31,0,0,1,2.32-5.68l18.24-18.16L110,217.68A16,16,0,0,1,108.32,197L123,176.4a113.85,113.85,0,0,1-4.64-11.12l-25-4.24A16,16,0,0,1,80,145.2V128H48v81.44a24,24,0,1,1-16,0V120a8,8,0,0,1,8-8H80v-1.2A16,16,0,0,1,90,96H7.44A7.88,7.88,0,0,0,0,104V320H448V104a7.87,7.87,0,0,0-7.44-8Z"/></g></g></svg>