<svg xmlns="http://www.w3.org/2000/svg" viewBox="0 0 464 464"><defs><style>.cls-1{fill:#8fc1ae;}.cls-2{fill:#1b67d8;}</style></defs><g id="Layer_2" data-name="Layer 2"><g id="Layer_5" data-name="Layer 5"><path class="cls-1" d="M104.38,389.18l48-128,15,5.62-48,128Z"/><path class="cls-1" d="M162.34,301.66,188.69,328l-26.35,26.34,11.32,11.32L211.31,328l-37.65-37.66Z"/><path class="cls-1" d="M83.31,328l26.35-26.34L98.34,290.34,60.69,328l37.65,37.66,11.32-11.32Z"/><path class="cls-2" d="M400,144h16v16H400Z"/><path class="cls-2" d="M368,144h16v16H368Z"/><path class="cls-2" d="M336,144h16v16H336Z"/><path class="cls-2" d="M368,240h16v16H368Z"/><path class="cls-2" d="M400,240h16v16H400Z"/><path class="cls-2" d="M336,240h16v16H336Z"/><path class="cls-2" d="M368,336h16v16H368Z"/><path class="cls-2" d="M400,336h16v16H400Z"/><path class="cls-2" d="M336,336h16v16H336Z"/><path class="cls-1" d="M272,309.75l-18.58-6.25-1-4.27a119.11,119.11,0,0,0-13.75-33.16l-2.27-3.76,8.72-17.57-25.82-25.82-17.57,8.72-3.76-2.27a119.59,119.59,0,0,0-33.16-13.75l-4.27-1L154.25,192H117.74l-6.25,18.58-4.27,1a119.11,119.11,0,0,0-33.16,13.75l-3.76,2.27-17.56-8.72L26.91,244.74l8.72,17.57-2.27,3.76a119.26,119.26,0,0,0-13.74,33.16l-1.05,4.27L0,309.75v36.51l18.58,6.25,1,4.27a119.11,119.11,0,0,0,13.75,33.16l2.27,3.76-8.72,17.56,25.82,25.83,17.57-8.72,3.76,2.27a119.21,119.21,0,0,0,33.16,13.74l4.27,1.05L117.75,464h36.51l6.25-18.58,4.27-1a119.19,119.19,0,0,0,33.16-13.75l3.76-2.27,17.56,8.72,25.83-25.82-8.72-17.57,2.27-3.76a119.26,119.26,0,0,0,13.74-33.16l1.05-4.27L272,346.25ZM136,424a96,96,0,1,1,96-96A96,96,0,0,1,136,424Z"/><path class="cls-2" d="M48,201l1.55-1.55,20.07,9.95A134.74,134.74,0,0,1,99.1,197.23L106.25,176h59.5l7.15,21.22a135.23,135.23,0,0,1,29.48,12.21l20.08-10,42.07,42.07-9.95,20.07a134.71,134.71,0,0,1,12.2,29.48L288,298.25v59.5l-21.22,7.15a135.23,135.23,0,0,1-12.21,29.48l2.78,5.62H456a8,8,0,0,0,8-8V96H48Zm264-81H440v64H312Zm0,96H440v64H312Zm0,96H440v64H312ZM96,112H240v16H96Zm-32,0H80v16H64Zm0,32H240v16H64Z"/><path class="cls-2" d="M456,0H56a8,8,0,0,0-8,8V80H464V8A8,8,0,0,0,456,0ZM104,56H72V24h32Zm64,0H136V24h32Zm64,0H200V24h32Zm200.71-2.6a15.68,15.68,0,0,1-5.42,2.11L426,56h-2a15.46,15.46,0,0,0,3.28-.49l5.43-2.11L403.39,24.08l-22.54.08L410.73,54l2,2H395.31L363.54,24.22,341,24.3,372.69,56H344a16,16,0,0,1-3-31.7,16.6,16.6,0,0,1,3-.3h19.31l.23.22,17.31-.06-.16-.16h22.62l.07.07L424,24a16,16,0,0,1,8.71,29.4Z"/></g></g></svg>