<?xml version="1.0" encoding="utf-8"?>
<!-- Generator: Adobe Illustrator 25.1.0, SVG Export Plug-In . SVG Version: 6.00 Build 0)  -->
<svg version="1.1" id="Layer_1" xmlns="http://www.w3.org/2000/svg" xmlns:xlink="http://www.w3.org/1999/xlink" x="0px" y="0px"
	 viewBox="0 0 400 400" style="enable-background:new 0 0 400 400;" xml:space="preserve">
<style type="text/css">
	.st0{fill:url(#SVGID_1_);}
	.st1{fill:#8FC1AE;}
	.st2{fill:#FFFFFF;}
	.st3{fill:#1B67D8;}
</style>
<linearGradient id="SVGID_1_" gradientUnits="userSpaceOnUse" x1="99.8" y1="141.65" x2="329.1" y2="141.65" gradientTransform="matrix(1 0 0 -1 0 402)">
	<stop  offset="0" style="stop-color:#0000FF"/>
	<stop  offset="1" style="stop-color:#29ABE2"/>
</linearGradient>
<path class="st0" d="M329.1,309c-21.1,6.5-47.2,10.8-75.8,11.7c-4.2,0.2-8.4,0.2-12.7,0.2c-77.8,0-140.8-24-140.8-53.7v-6
	c18-36.4,55.5-61.4,98.8-61.4c60.3,0,109.3,48.4,110.2,108.5c2.9-0.8,6-1.2,9.1-1.2c0.9,0,1.8,0,2.7,0.1
	C323.5,307.4,326.3,308,329.1,309z"/>
<path class="st1" d="M381.4,88.2v179.1c0,14-14,26.7-36.9,36.2c-6.8-4.7-14.8-7.6-23-8.2c-0.5,0-1-0.1-1.5-0.1
	c-3.3-27.3-15.6-52.6-35.5-72.2c-23-22.7-53.5-35.2-85.8-35.2c-28.2,0-55.7,9.8-77.4,27.7c-8.1,6.6-15.3,14.3-21.4,22.7v-150
	L381.4,88.2L381.4,88.2z"/>
<path class="st1" d="M381.4,88.2c0-29.6-63-53.6-140.8-53.6S99.9,58.6,99.9,88.2s63,53.6,140.8,53.6S381.4,117.8,381.4,88.2
	L381.4,88.2z"/>
<path class="st2" d="M158.2,86.8c0-1.9-4.1-3.5-9.2-3.5c-5.1,0-9.2,1.6-9.2,3.5s4.1,3.5,9.2,3.5C154.1,90.3,158.2,88.7,158.2,86.8
	L158.2,86.8z"/>
<path class="st3" d="M332.1,364.7H43.5c-11.2,0-20.8-8.3-22.2-19.5c-0.3-2.4-0.4-4.8-0.4-7.2c0.3-29,23.8-52.8,52.9-53.3
	c5.9-0.1,11.6,0.7,17,2.4c10.6-49.9,54.8-87.3,107.8-87.3c60.3,0,109.3,48.4,110.2,108.5c3.7-1,7.7-1.4,11.8-1.1
	c16.8,1.2,32.3,16.3,33.7,33.1c0,0.2,0,0.3,0,0.5C355.3,353.6,345,364.7,332.1,364.7L332.1,364.7z"/>
<path class="st2" d="M183.6,320.1c0.7,0,1.4-0.1,2.1-0.4c2-0.8,3.4-2.8,3.4-5v-54.5c0-3-2.4-5.4-5.4-5.4s-5.4,2.4-5.4,5.4v41.4
	l-15.8-15.8c-2.1-2.1-5.6-2.1-7.7,0c-2.1,2.1-2.1,5.6,0,7.7l25.1,25.1C180.8,319.6,182.2,320.1,183.6,320.1L183.6,320.1z"/>
<path class="st2" d="M213,314.7v-41.4l15.8,15.8c2.1,2.1,5.6,2.1,7.7,0c2.1-2.1,2.1-5.6,0-7.7l-25.1-25.1c-1.6-1.6-3.9-2-5.9-1.2
	s-3.4,2.8-3.4,5v54.5c0,3,2.4,5.4,5.4,5.4C210.5,320.1,213,317.7,213,314.7L213,314.7z"/>
</svg>
