<svg xmlns="http://www.w3.org/2000/svg" viewBox="0 0 450 512"><defs><style>.cls-1{fill:#1b67d8;}.cls-2{fill:#8fc1ae;}</style></defs><g id="Layer_2" data-name="Layer 2"><g id="Layer_1-2" data-name="Layer 1"><path class="cls-1" d="M0,452H180v30H120v30H330V482H270V452H450V391H0Z"/><path class="cls-2" d="M225,121a30,30,0,1,0,30,30A30,30,0,0,0,225,121Z"/><path class="cls-2" d="M309.85,23.72,285.6,48A119,119,0,0,0,255,35.24V0H195V35.24A119,119,0,0,0,164.4,48L140.15,23.72,97.72,66.15,122,90.4A119,119,0,0,0,109.24,121H75v60h34.24A118.85,118.85,0,0,0,122,211.61L97.72,235.86l42.43,42.42L164.4,254A119,119,0,0,0,195,266.76V301h60V266.76A119,119,0,0,0,285.6,254l24.25,24.25,42.43-42.43L328,211.6A118.63,118.63,0,0,0,340.76,181H375V121H340.76A119.2,119.2,0,0,0,328,90.39l24.25-24.25ZM225,211a60,60,0,1,1,60-60A60.06,60.06,0,0,1,225,211Z"/><path class="cls-1" d="M405,211H369.84l24.86,24.86L309.86,320.7,285,295.84V331H165V295.84L140.14,320.7,55.3,235.86,80.16,211H45V121H0V361H450V121H405Z"/></g></g></svg>