<?xml version="1.0" encoding="utf-8"?>
<!-- Generator: Adobe Illustrator 25.1.0, SVG Export Plug-In . SVG Version: 6.00 Build 0)  -->
<svg version="1.1" id="Layer_1" xmlns="http://www.w3.org/2000/svg" xmlns:xlink="http://www.w3.org/1999/xlink" x="0px" y="0px"
	 viewBox="0 0 512 512" style="enable-background:new 0 0 512 512;" xml:space="preserve">
<style type="text/css">
	.st0{fill:#8FC1AE;}
	.st1{fill:#1B67D8;}
</style>
<path class="st0" d="M512,132.8V35H0v97.8H512z M440.2,69h30v30h-30V69z M392.7,69h30v30h-30V69z M344.6,69h30v30h-30V69z"/>
<path class="st1" d="M0,162.8V477h512V162.8H0z M185.7,371.7l-19.3,22.9l-90.1-75.9l90.1-75.9l19.3,22.9l-62.9,52.9L185.7,371.7z
	 M231.2,417.7l-27.9-11.1l74.4-186.7l27.9,11.1L231.2,417.7z M345.6,394.7l-19.3-22.9l62.9-52.9L326.3,266l19.3-22.9l90.1,75.9
	L345.6,394.7z"/>
</svg>
