<svg xmlns="http://www.w3.org/2000/svg" viewBox="0 0 512 464.21"><defs><style>.cls-1{fill:#1b67d8;}.cls-2{fill:#8fc1ae;}</style></defs><g id="Layer_2" data-name="Layer 2"><g id="Layer_1-2" data-name="Layer 1"><path class="cls-1" d="M133.12,125.16H5.69A5.68,5.68,0,0,0,0,130.84V447.15a17.06,17.06,0,0,0,17.07,17.06H133.12a5.69,5.69,0,0,0,5.69-5.69V130.85A5.69,5.69,0,0,0,133.12,125.16ZM89.89,394.81h-41a17.07,17.07,0,1,1,0-34.13h41a17.07,17.07,0,1,1,0,34.13Zm0-83.06h-41a17.07,17.07,0,1,1,0-34.13h41a17.07,17.07,0,1,1,0,34.13Zm0-83.06h-41a17.07,17.07,0,1,1,0-34.13h41a17.07,17.07,0,1,1,0,34.13Z"/><path class="cls-2" d="M494.93,0H17.07A17.07,17.07,0,0,0,0,17.07V85.33A5.69,5.69,0,0,0,5.69,91H506.31A5.69,5.69,0,0,0,512,85.33V17.07A17.07,17.07,0,0,0,494.93,0ZM64.85,56.89A11.38,11.38,0,1,1,76.23,45.51,11.39,11.39,0,0,1,64.85,56.89Zm45.51,0a11.38,11.38,0,1,1,11.38-11.38A11.38,11.38,0,0,1,110.36,56.89Zm45.52,0a11.38,11.38,0,1,1,11.37-11.38A11.38,11.38,0,0,1,155.88,56.89Z"/><path class="cls-1" d="M506.31,125.16H178.63a5.68,5.68,0,0,0-5.69,5.68V458.52a5.69,5.69,0,0,0,5.69,5.69h316.3A17.06,17.06,0,0,0,512,447.15V130.85A5.69,5.69,0,0,0,506.31,125.16Zm-101.26,215v45.51A17.06,17.06,0,0,1,388,402.77H297a17.07,17.07,0,0,1-17.07-17.06V340.2a62.39,62.39,0,0,1,19.7-45.51C258.4,255.85,286.12,186.6,342.47,186.6s84,69.3,42.88,108.09A62.35,62.35,0,0,1,405.05,340.2Z"/></g></g></svg>