<svg xmlns="http://www.w3.org/2000/svg" viewBox="0 0 100 100"><defs><style>.cls-1{fill:#4e2fb8;}.cls-2{fill:#3c9bd5;}.cls-3{fill:#fff;}.cls-4{fill:#dfdcf7;}</style></defs><g id="Layer_2" data-name="Layer 2"><g id="Capa_1" data-name="Capa 1"><circle class="cls-1" cx="50" cy="50" r="50"/><polygon class="cls-2" points="50.76 46.65 49.99 46.97 49.99 46.65 50.76 46.65"/><path class="cls-3" d="M27.2,31.64,31.47,78,50,83l18.53-5L72.8,31.64Zm36.42,15L50,52.48H63.13l-1.5,17.35L50,73.24h0L38.29,69.78,37.53,61h5.81l.37,4.53,6.21,1.57.06,0h0l6.42-1.81L56.85,58,50,58h0L37.16,58l-.44-5.47L50,47h0l.77-.32H36.21l-.69-5.59H64.18Z"/><polygon class="cls-4" points="68.5 35.39 65.03 74.94 50.05 78.98 49.99 78.97 49.99 73.24 50.01 73.24 61.63 69.84 63.13 52.49 49.99 52.49 49.99 52.48 63.63 46.65 64.19 41.06 49.99 41.06 49.99 35.39 68.5 35.39"/><polygon class="cls-3" points="39.48 24.83 39.48 22.07 43.51 22.07 43.51 19.05 36.47 19.05 36.47 27.58 43.51 27.58 43.51 24.83 39.48 24.83"/><path class="cls-3" d="M50.74,22.07h2.81v-3h-7v3c1,.94,1.44,1.39,2.8,2.76h-2.8v2.75h7V24.83Z"/><path class="cls-3" d="M60.72,22.07h2.81v-3h-7v3c.94.94,1.44,1.39,2.8,2.76h-2.8v2.75h7V24.83Z"/></g></g></svg>