<svg xmlns="http://www.w3.org/2000/svg" viewBox="0 0 512 512"><defs><style>.cls-1{fill:#4989d6;}.cls-2{fill:#8fc1ae;}</style></defs><g id="Layer_2" data-name="Layer 2"><g id="Capa_1" data-name="Capa 1"><path class="cls-1" d="M287.84,201.1h0C324.44,103.82,252.07,0,148.67,0,66.69,0,0,66.73,0,148.76c0,103.9,104.32,175.91,201.17,139.18a180,180,0,0,1,86.67-86.84ZM163.73,229.78v16.93a15.06,15.06,0,0,1-30.12,0V229.78c-6.32,0-20.6,1-36.76-10.25A15.06,15.06,0,0,1,114,194.79a26.27,26.27,0,0,0,14.39,4.87H167a17.92,17.92,0,0,0,0-35.84h-36.7a48.08,48.08,0,0,1-48-48c0-24.14,18-48,51.31-48V50.82a15.06,15.06,0,0,1,30.12,0V67.74c17.74,0,32,6.71,42.47,17.91a15.06,15.06,0,1,1-22,20.6,26,26,0,0,0-18.5-8.39h-35.4a17.92,17.92,0,0,0,0,35.84h34.41c31.16,0,50.31,23.2,50.31,48,0,24.67-18.5,48-51.31,48Z"/><path class="cls-2" d="M363.33,214.48c-81.88,0-148.67,66.61-148.67,148.76S281.35,512,363.33,512,512,445.27,512,363.24,445.31,214.48,363.33,214.48Zm67,228.86a15,15,0,0,1-18.9,9.8c-31.48-10-58.62-8-87.54.14-12.88,3.62-23.75-10.14-17.24-21.82a144.83,144.83,0,0,0,16.93-50.14h-13a15.06,15.06,0,0,1,0-30.12h14.1c-.28-4.2-.48-5.62-1.88-18.36a54.27,54.27,0,0,1,94.55-41.93,15.06,15.06,0,1,1-22.54,20c-15.39-17.38-44.64-4.91-42.07,18.68,1.42,12.9,1.77,15.58,2.12,21.64h21a15.06,15.06,0,1,1,0,30.12H354a172.6,172.6,0,0,1-8.31,36.42,173.08,173.08,0,0,1,74.88,6.7,15,15,0,0,1,9.8,18.9Z"/></g></g></svg>