<svg xmlns="http://www.w3.org/2000/svg" viewBox="0 0 501.61 512"><defs><style>.cls-1{fill:#1b67d8;}.cls-2{fill:#8fc1ae;}</style></defs><g id="Layer_2" data-name="Layer 2"><g id="Capa_1" data-name="Capa 1"><path class="cls-1" d="M46,83.16,0,96,46,261.23Z"/><path class="cls-1" d="M110.71,486.2l7.18,25.8,92.64-25.8Z"/><path class="cls-1" d="M385,456l-97.49-97.49h-133V328.33H257.27L224,295.11h-69.6V264.92h53.72l-14.54-33.23H154.44V201.5h26l-8.67-19.81L217,201.5H363.1v30.19H282.88l33.22,33.23h47v30.19H346.29l90.2,90.2V0H76.21V456ZM156.48,74.67H272.06v30.19H156.48Zm0,63.41H363.1v30.19H156.48Z"/><path class="cls-2" d="M263.09,254.6l-32.77-14.34L244.66,273,441,469.36l18.43-18.43Z"/><path class="cls-2" d="M480.77,472.28l-18.43,18.43,17.15,17.15a12.58,12.58,0,0,0,17.79,0l.64-.64a12.57,12.57,0,0,0,0-17.79Z"/></g></g></svg>