<svg xmlns="http://www.w3.org/2000/svg" viewBox="0 0 701 651.21"><defs><style>.cls-1{fill:#1b67d8;}.cls-2{fill:#8fc1ae;}</style></defs><g id="Layer_2" data-name="Layer 2"><g id="Layer_1-2" data-name="Layer 1"><path class="cls-1" d="M462.08,424.61a62.45,62.45,0,1,1-62.44-62.44A62.45,62.45,0,0,1,462.08,424.61Z"/><path class="cls-2" d="M599.45,74.93V25a25,25,0,0,0-25-25H25A25,25,0,0,0,0,25V524.52a25,25,0,0,0,25,25h50V124.89a50,50,0,0,1,50-50ZM124.89,25h25V50h-25ZM50,50H25V25H50Zm50,0h-25V25h25Z"/><path class="cls-1" d="M532.49,390.27A136.61,136.61,0,0,0,517.88,355a12.49,12.49,0,0,1,1.92-15.17l21.12-21.13L505.6,283.32l-21.13,21.13a12.48,12.48,0,0,1-15.18,1.92A136.4,136.4,0,0,0,434,291.76a12.49,12.49,0,0,1-9.37-12.09v-29.9H374.66v29.9a12.47,12.47,0,0,1-9.37,12.09A136.69,136.69,0,0,0,330,306.37a12.48,12.48,0,0,1-15.18-1.92l-21.13-21.13-35.32,35.33,21.12,21.13a12.5,12.5,0,0,1,1.93,15.16,137.73,137.73,0,0,0-14.62,35.38,12.49,12.49,0,0,1-12.09,9.37h-29.9v49.95h29.9A12.47,12.47,0,0,1,266.78,459a136.44,136.44,0,0,0,14.62,35.32,12.5,12.5,0,0,1-1.93,15.17l-21.12,21.13L293.67,566l21.13-21.12A12.48,12.48,0,0,1,330,542.9a136.37,136.37,0,0,0,35.31,14.62,12.48,12.48,0,0,1,9.37,12.09v29.84h49.95v-29.9A12.48,12.48,0,0,1,434,557.47a136.08,136.08,0,0,0,35.31-14.62,12.5,12.5,0,0,1,15.18,1.93l21.13,21.13,35.32-35.33L519.8,509.45a12.49,12.49,0,0,1-1.92-15.17A136.76,136.76,0,0,0,532.49,459a12.5,12.5,0,0,1,12.09-9.37h29.9V399.64h-29.9A12.5,12.5,0,0,1,532.49,390.27ZM399.64,512a87.43,87.43,0,1,1,87.42-87.43A87.42,87.42,0,0,1,399.64,512Z"/><path class="cls-1" d="M697.72,122.91a25,25,0,0,0-25.14-24.8l-549.5,3.61a25,25,0,0,0-24.82,25.14l3.28,499.55a25,25,0,0,0,25.15,24.8l549.5-3.61A25,25,0,0,0,701,622.44Zm-472.93,2h25v25h-25Zm-49.95,0h25v25h-25Zm-49.95,0h25v25h-25Zm0,112.4h99.9v25h-99.9Zm0,74.93v-25h74.93v25ZM587,474.57H554a158.5,158.5,0,0,1-9.88,23.85l23.34,23.33a12.5,12.5,0,0,1,0,17.66l-53,53a12.5,12.5,0,0,1-17.66,0l-23.32-23.33a161.07,161.07,0,0,1-23.86,9.86v33a12.49,12.49,0,0,1-12.49,12.48H362.17A12.49,12.49,0,0,1,349.68,612v-33a161,161,0,0,1-23.85-9.86L302.51,592.4a12.51,12.51,0,0,1-17.67,0l-53-53a12.5,12.5,0,0,1,0-17.66l23.34-23.33a160.61,160.61,0,0,1-9.88-23.85h-33a12.49,12.49,0,0,1-12.49-12.49V387.15a12.49,12.49,0,0,1,12.49-12.49h33A164.22,164.22,0,0,1,252.18,357c1-2.07,2-4.12,3-6.17l-23.33-23.32a12.5,12.5,0,0,1,0-17.66l53-53a12.49,12.49,0,0,1,17.67,0l23.32,23.32a162,162,0,0,1,23.85-9.86v-33a12.5,12.5,0,0,1,12.49-12.5H437.1a12.5,12.5,0,0,1,12.49,12.5v33a162.15,162.15,0,0,1,23.86,9.86l23.32-23.32a12.48,12.48,0,0,1,17.66,0l53,53a12.5,12.5,0,0,1,0,17.66L544.08,350.8A158.19,158.19,0,0,1,554,374.66h33a12.48,12.48,0,0,1,12.48,12.49v74.93A12.49,12.49,0,0,1,587,474.57Zm87.42,149.86H599.45v-25h74.94Zm0-424.61H124.89v-25h549.5Z"/></g></g></svg>