<svg xmlns="http://www.w3.org/2000/svg" viewBox="0 0 512 502"><defs><style>.cls-1{fill:#8fc1ae;}.cls-2{fill:#1b67d8;}</style></defs><g id="Layer_2" data-name="Layer 2"><g id="Capa_1" data-name="Capa 1"><path class="cls-1" d="M191,212H307.23l17.32-66H191Z"/><path class="cls-2" d="M451,0H61A61.11,61.11,0,0,0,0,61V336H512V61A61.11,61.11,0,0,0,451,0ZM208,302H184a15,15,0,0,1,0-30h24a15,15,0,0,1,0,30Zm104,0H288a15,15,0,0,1,0-30h24a15,15,0,0,1,0,30Zm44.09-158-21.34,81.31A22.37,22.37,0,0,1,313.13,242H183.35A22.38,22.38,0,0,1,161,219.65V94H128.58a15,15,0,0,1,0-30H176a15,15,0,0,1,15,15v37H334.47a22.35,22.35,0,0,1,21.62,28Z"/><path class="cls-2" d="M61,430h98.57v42H112a15,15,0,0,0,0,30H400a15,15,0,0,0,0-30H352.39V430H451c31.31,0,61-24,61-64H0C0,405.67,29.48,430,61,430Z"/></g></g></svg>