<svg xmlns="http://www.w3.org/2000/svg" viewBox="0 0 512 512"><defs><style>.cls-1{fill:#4989d6;}.cls-2{fill:#8fc1ae;}</style></defs><g id="Layer_2" data-name="Layer 2"><g id="Capa_1" data-name="Capa 1"><path class="cls-1" d="M497,181H451V151h46a15,15,0,0,0,0-30H451V76a15,15,0,0,0-15-15H391V15a15,15,0,0,0-30,0V61H331V15a15,15,0,0,0-30,0V61H271V15a15,15,0,0,0-30,0V61H211V15a15,15,0,0,0-30,0V61H151V15a15,15,0,0,0-30,0V61H76A15,15,0,0,0,61,76v45H15a15,15,0,0,0,0,30H61v30H15a15,15,0,0,0,0,30H61v30H15a15,15,0,0,0,0,30H61v30H15a15,15,0,0,0,0,30H61v30H15a15,15,0,0,0,0,30H61v45a15,15,0,0,0,15,15h45v46a15,15,0,0,0,30,0V451h30v46a15,15,0,0,0,30,0V451h30v46a15,15,0,0,0,30,0V451h30V391H136a15,15,0,0,1-15-15V136a15,15,0,0,1,15-15H376a15,15,0,0,1,15,15v80.53a84.14,84.14,0,0,1,60,0V211h46a15,15,0,0,0,0-30Z"/><path class="cls-1" d="M151,151V361H303.77A45.19,45.19,0,0,1,331,333.76V301a89.45,89.45,0,0,1,30.07-66.65c0-.11-.07-.21-.07-.32V151Z"/><path class="cls-2" d="M497,361H346a15,15,0,0,0-15,15V497a15,15,0,0,0,15,15H497a15,15,0,0,0,15-15V376A15,15,0,0,0,497,361Zm-61,90a15,15,0,0,1-30,0V421a15,15,0,0,1,30,0Z"/><path class="cls-2" d="M482,331V301c0-33.14-27.86-60-61-60a60,60,0,0,0-60,60v30h30V301a30,30,0,0,1,60,0v30Z"/></g></g></svg>