<?xml version="1.0" encoding="utf-8"?>
<!-- Generator: Adobe Illustrator 25.1.0, SVG Export Plug-In . SVG Version: 6.00 Build 0)  -->
<svg version="1.1" id="Layer_1" xmlns="http://www.w3.org/2000/svg" xmlns:xlink="http://www.w3.org/1999/xlink" x="0px" y="0px"
	 viewBox="0 0 400 400" style="enable-background:new 0 0 400 400;" xml:space="preserve">
<style type="text/css">
	.st0{fill:#327FCC;}
	.st1{fill:#8FC1AE;}
	.st2{fill:#469BFF;}
	.st3{fill:#DAE0EA;}
	.st4{fill:#1B67D8;}
	.st5{fill:#FFFFFF;}
</style>
<path class="st0" d="M223.5,256v56l24-16l24,16v-56H223.5z"/>
<path class="st1" d="M78.2,27.2v48h-30v-40c0-13.3,10.7-24,24-24c0.6,0,1.2,0,1.7,0.1C76.7,16,78.2,21.4,78.2,27.2z"/>
<path class="st2" d="M105.5,35.2v40h-18v-48c0-5.8-1.5-11.2-4.3-15.9C95.5,12.2,105.5,22.4,105.5,35.2z"/>
<path class="st3" d="M127.7,112c4.4,0,8-3.6,8-8s-3.6-8-8-8s-8,3.6-8,8S123.3,112,127.7,112L127.7,112z"/>
<path class="st3" d="M127.7,160c4.4,0,8-3.6,8-8s-3.6-8-8-8s-8,3.6-8,8S123.3,160,127.7,160L127.7,160z"/>
<path class="st4" d="M311.5,35.2v295.5h-14.9v0.1h-158c-9.9,0-18,8.1-18,18v15.6c0,7.4-5.3,14.3-12.4,14.4
	c-4.5,0.1-11.3,0.1-15.8,0.2c-3.2-4.5-5-10.1-5-15.8v-336c0-5.8-1.5-11.2-4.3-15.9c0,0,0-0.1,0-0.1h204.3
	C300.8,11.2,311.5,21.9,311.5,35.2z"/>
<path class="st5" d="M149.1,240.1h127.3c3,0,5.4-2.4,5.4-5.4s-2.4-5.4-5.4-5.4H149.1c-3,0-5.4,2.4-5.4,5.4
	C143.7,237.7,146.1,240.1,149.1,240.1L149.1,240.1z"/>
<path class="st5" d="M149.1,268.8h67.3c3,0,5.4-2.4,5.4-5.4s-2.4-5.4-5.4-5.4h-67.3c-3,0-5.4,2.4-5.4,5.4
	C143.7,266.4,146.1,268.8,149.1,268.8L149.1,268.8z"/>
<path class="st1" d="M190.3,130.7v52.5l22.5-15l22.5,15v-52.5H190.3z"/>
<path class="st5" d="M212.8,63.3c20.7,0,37.5,16.8,37.5,37.5s-16.8,37.5-37.5,37.5c-20.6,0-37.5-16.7-37.5-37.5
	S192.1,63.3,212.8,63.3L212.8,63.3z"/>
<g>
	<path class="st1" d="M337.6,340.7c0,26.5-21.5,48-48,48H109.4c12.2-1.4,21.2-12,21.2-24.3v-15.6c0-4.4,3.6-8,8-8h168v-0.1H337.6z"
		/>
</g>
</svg>
