<?xml version="1.0" encoding="utf-8"?>
<!-- Generator: Adobe Illustrator 25.1.0, SVG Export Plug-In . SVG Version: 6.00 Build 0)  -->
<svg version="1.1" id="Layer_1" xmlns="http://www.w3.org/2000/svg" xmlns:xlink="http://www.w3.org/1999/xlink" x="0px" y="0px"
	 viewBox="0 0 100 100" style="enable-background:new 0 0 100 100;" xml:space="preserve">
<style type="text/css">
	.st0{fill:#4E2FB8;}
	.st1{fill:#FFFFFF;}
</style>
<g id="Layer_2_1_">
	<g id="Capa_1">
		<circle class="st0" cx="50" cy="50" r="50"/>
		<polygon class="st1" points="22.2,43.6 21.8,43.6 21.8,44 21.8,63.8 21.8,64.2 22.2,64.2 27.2,64.2 27.6,64.2 27.6,63.8 27.6,44 
			27.6,43.6 27.2,43.6 		"/>
		<path class="st1" d="M24.7,35.4c-1.7,0-3.1,1.4-3.1,3s1.4,3.1,3,3.1l0,0c1.7,0,3.1-1.4,3.1-3C27.8,36.8,26.4,35.4,24.7,35.4z"/>
		<path class="st1" d="M44.5,35.5c-7.9,0-13.4,6.1-13.4,14.8c0,8.4,5.4,14.3,13,14.3c8.2,0,13.5-5.8,13.5-14.8
			C57.5,41.3,52.3,35.5,44.5,35.5z M44.3,40.3c5,0,7.2,5,7.2,9.7c0,5.9-2.9,9.9-7.2,9.9s-7.3-3.9-7.3-9.7
			C37.1,44.2,39.9,40.3,44.3,40.3z"/>
		<path class="st1" d="M71.2,47.5c-3.5-1.4-5-2.3-5-4.2c0-1.4,1.1-2.9,4.2-2.9c1.9,0,3.7,0.4,5.3,1.3l0.4,0.2l0.1-0.4l1.1-4.1
			l0.1-0.3L77.2,37c-2.1-1-4.4-1.5-6.7-1.4c-5.9,0-10.1,3.4-10.1,8.3c0,3.7,2.5,6.5,7.7,8.3c3.4,1.2,4.6,2.4,4.6,4.2
			c0,2.1-1.7,3.4-4.6,3.4c-2.3,0-4.5-0.6-6.4-1.7l-0.4-0.2L61,58.3l-1.1,4.1l-0.1,0.3l0.2,0.1c2.4,1.2,5,1.8,7.6,1.8
			c7.9,0,10.7-4.6,10.7-8.6S76.2,49.4,71.2,47.5z"/>
	</g>
</g>
</svg>
