<?xml version="1.0" encoding="utf-8"?>
<!-- Generator: Adobe Illustrator 25.1.0, SVG Export Plug-In . SVG Version: 6.00 Build 0)  -->
<svg version="1.1" id="Layer_1" xmlns="http://www.w3.org/2000/svg" xmlns:xlink="http://www.w3.org/1999/xlink" x="0px" y="0px"
	 viewBox="0 0 400 400" style="enable-background:new 0 0 400 400;" xml:space="preserve">
<style type="text/css">
	.st0{fill:#8FC1AE;}
	.st1{fill:#5AA5FF;}
	.st2{fill:url(#SVGID_1_);}
	.st3{fill:url(#SVGID_2_);}
	.st4{fill:#FFFFFF;}
</style>
<path class="st0" d="M90.2,317.3v44.4c0,4-2.3,7.5-5.7,9.2c-1.4,0.7-2.9,1.1-4.6,1.1h-8.2c-5.7,0-10.3-4.6-10.3-10.3v-44.4
	c0-5.7,4.6-10.3,10.3-10.3h8.2c1.6,0,3.2,0.4,4.6,1.1C87.9,309.8,90.2,313.3,90.2,317.3z"/>
<path class="st0" d="M343.7,317.3v44.4c0,4-2.3,7.5-5.7,9.2c-1.4,0.7-2.9,1.1-4.6,1.1h-8.2c-5.7,0-10.3-4.6-10.3-10.3v-44.4
	c0-5.7,4.6-10.3,10.3-10.3h8.2c1.6,0,3.2,0.4,4.6,1.1C341.4,309.8,343.7,313.3,343.7,317.3z"/>
<path class="st1" d="M254.1,108.2v109.4c0,7.8-6.4,14.1-14.1,14.1h-4.5c-7.8,0-14.1-6.4-14.1-14.1V108.2c0-9,7.4-16.4,16.4-16.4l0,0
	c4.5,0,8.6,1.8,11.6,4.8C252.2,99.6,254.1,103.7,254.1,108.2z"/>
<linearGradient id="SVGID_1_" gradientUnits="userSpaceOnUse" x1="35.84" y1="191.325" x2="47.03" y2="191.325">
	<stop  offset="0" style="stop-color:#0000FF"/>
	<stop  offset="1" style="stop-color:#29ABE2"/>
</linearGradient>
<path class="st2" d="M35.8,196.7c2.5-4.6,6.4-8.4,11.2-10.7C42.3,188.3,38.4,192,35.8,196.7z"/>
<linearGradient id="SVGID_2_" gradientUnits="userSpaceOnUse" x1="55.7" y1="183.55" x2="57.9" y2="183.55">
	<stop  offset="0" style="stop-color:#0000FF"/>
	<stop  offset="1" style="stop-color:#29ABE2"/>
</linearGradient>
<path class="st3" d="M57.9,183.5c-0.7,0-1.5,0-2.2,0.1C56.4,183.5,57.2,183.5,57.9,183.5z"/>
<path class="st0" d="M372.3,263.6V314c-0.6,13.3-11.7,23.9-25.1,23.9H57.9c-13.8,0-25.1-11.3-25.1-25.1v-49.2H372.3z"/>
<path class="st1" d="M372.3,208.6v45H32.8v-45c0-1,0.1-2.1,0.2-3.1c0-0.2,0-0.5,0.1-0.7c0.1-0.5,0.2-1.1,0.3-1.6
	c0.1-0.3,0.1-0.5,0.2-0.8c0-0.1,0.1-0.3,0.1-0.4c0.1-0.3,0.1-0.5,0.2-0.8c0-0.1,0-0.2,0.1-0.2c0.1-0.4,0.2-0.7,0.4-1
	c0.1-0.4,0.3-0.8,0.5-1.1c0.2-0.4,0.3-0.8,0.5-1.1c0.2-0.4,0.4-0.7,0.6-1.1c2.5-4.6,6.4-8.4,11.2-10.7c0,0,0,0,0,0
	c0.4-0.2,0.7-0.3,1.1-0.5c0.4-0.2,0.8-0.3,1.1-0.4c0.4-0.1,0.7-0.2,1.1-0.4c0.1,0,0.1,0,0.2-0.1c0.3-0.1,0.6-0.2,0.9-0.3
	c0.1,0,0.2-0.1,0.4-0.1c0.2,0,0.4-0.1,0.6-0.1c0.2-0.1,0.4-0.1,0.6-0.1c0.2,0,0.3-0.1,0.5-0.1c0.2,0,0.4-0.1,0.7-0.1
	c0.2,0,0.3,0,0.5-0.1c0.3,0,0.5-0.1,0.8-0.1c0,0,0,0,0,0c0.7-0.1,1.5-0.1,2.2-0.1h289.3C361,183.4,372.3,194.7,372.3,208.6z"/>
<path class="st4" d="M324.4,213v11c0,5.7-4.6,10.3-10.3,10.3h-26.8c-5.7,0-10.3-4.6-10.3-10.3v-11c0-5.7,4.6-10.3,10.3-10.3h26.8
	C319.7,202.7,324.4,207.3,324.4,213z"/>
<path class="st0" d="M254.1,56.3c20.2,0,36.6,16.4,36.6,36.6c0,3,2.5,5.5,5.5,5.5s5.5-2.5,5.5-5.5c0-26.2-21.3-47.6-47.6-47.6
	c-3,0-5.5,2.5-5.5,5.5C248.6,53.9,251,56.3,254.1,56.3z"/>
<path class="st0" d="M251.9,75.4c10.9,0,19.7,8.8,19.7,19.7c0,3,2.5,5.5,5.5,5.5s5.5-2.5,5.5-5.5c0-16.9-13.8-30.7-30.7-30.7
	c-3,0-5.5,2.5-5.5,5.5S248.8,75.4,251.9,75.4z"/>
<path class="st0" d="M256,38c29.9,0,52.9,23.4,50.9,54.5c-0.2,3.2,2.3,5.8,5.5,5.8c2.9,0,5.3-2.2,5.5-5.2
	C320.2,55.9,292.4,27,256,27c-3,0-5.5,2.5-5.5,5.5C250.5,35.6,253,38,256,38z"/>
<g>
	<path class="st4" d="M91.5,218.5c0,3.5-2.8,6.2-6.2,6.2c-3.5,0-6.2-2.8-6.2-6.2s2.8-6.2,6.2-6.2C88.8,212.2,91.5,215,91.5,218.5
		L91.5,218.5z"/>
	<path class="st4" d="M116.4,218.5c0,3.5-2.8,6.2-6.2,6.2c-3.5,0-6.2-2.8-6.2-6.2s2.8-6.2,6.2-6.2
		C113.6,212.2,116.4,215,116.4,218.5L116.4,218.5z"/>
	<path class="st4" d="M141.3,218.5c0,3.5-2.8,6.2-6.2,6.2c-3.5,0-6.2-2.8-6.2-6.2s2.8-6.2,6.2-6.2
		C138.5,212.2,141.3,215,141.3,218.5L141.3,218.5z"/>
</g>
</svg>
