<svg xmlns="http://www.w3.org/2000/svg" viewBox="0 0 100 100"><defs><style>.cls-1{fill:#4e2fb8;}.cls-2{fill:#ab9df4;}.cls-3{fill:#e76f00;}</style></defs><g id="Layer_2" data-name="Layer 2"><g id="Capa_1" data-name="Capa 1"><circle class="cls-1" cx="50" cy="50" r="50"/><path class="cls-2" d="M41.2,65.59s-2.56,1.49,1.83,2A38.23,38.23,0,0,0,56.91,67a23.6,23.6,0,0,0,3.69,1.8c-13.13,5.63-29.71-.32-19.4-3.2"/><path class="cls-2" d="M39.6,58.25s-2.88,2.13,1.51,2.58A54.37,54.37,0,0,0,59,60a8,8,0,0,0,2.76,1.68c-15.86,4.64-33.54.37-22.18-3.4"/><path class="cls-3" d="M53.12,45.8c3.23,3.72-.85,7.07-.85,7.07s8.21-4.24,4.44-9.55c-3.52-5-6.22-7.41,8.4-15.89,0,0-23,5.74-12,18.37"/><path class="cls-2" d="M70.48,71s1.89,1.56-2.09,2.77c-7.58,2.29-31.53,3-38.19.09-2.39-1,2.1-2.49,3.51-2.79A9,9,0,0,1,36,70.83C33.36,69,18.83,74.51,28.64,76.1,55.4,80.44,77.42,74.15,70.48,71"/><path class="cls-2" d="M42.43,50.64s-12.18,2.9-4.31,4a92.68,92.68,0,0,0,16.12-.17c5-.43,10.1-1.33,10.1-1.33a20.92,20.92,0,0,0-3.06,1.64C48.9,58,25,56.47,31.88,53.14a23,23,0,0,1,10.55-2.5"/><path class="cls-2" d="M64.29,62.86c12.58-6.54,6.76-12.82,2.7-12a9.36,9.36,0,0,0-1.43.39,2.3,2.3,0,0,1,1.07-.83c8-2.83,14.21,8.32-2.59,12.74a1.08,1.08,0,0,0,.25-.33"/><path class="cls-3" d="M56.71,13.74s7,7-6.61,17.69c-10.88,8.59-2.48,13.49,0,19.09-6.36-5.73-11-10.78-7.89-15.47,4.59-6.9,17.31-10.24,14.5-21.31"/><path class="cls-2" d="M43.67,80.57c12.07.77,30.61-.43,31.05-6.14,0,0-.84,2.17-10,3.89a99.63,99.63,0,0,1-30.55.47s1.55,1.27,9.48,1.78"/></g></g></svg>