<svg xmlns="http://www.w3.org/2000/svg" viewBox="0 0 100 100"><defs><style>.cls-1{fill:#4e2fb8;}.cls-2{fill:#fff;}</style></defs><g id="Layer_2" data-name="Layer 2"><g id="Capa_1" data-name="Capa 1"><circle class="cls-1" cx="50" cy="50" r="50"/><path class="cls-2" d="M58,72.45a1,1,0,0,1-.87-.5L49.42,59.14,35.06,63a1,1,0,0,1-1.16-.5L17.12,31a1,1,0,0,1,0-.95,1,1,0,0,1,.77-.54l14.26-1.92a1,1,0,0,1,1,.49L50.37,56.77l20-5.44L63.7,41.91a1,1,0,0,1-.13-.94,1,1,0,0,1,.72-.63l9.36-2.21a1,1,0,0,1,1,.35l8.1,10.11a1,1,0,0,1,.17.95,1,1,0,0,1-.7.67l-8.53,2.32L81.16,63a1,1,0,0,1,.14.89,1,1,0,0,1-.63.65L58.31,72.39A1,1,0,0,1,58,72.45ZM51.46,58.58l7,11.62,20.3-7.11-7.09-10ZM19.6,31.3,35.31,60.87l13-3.54L31.75,29.67ZM66.23,42l6.24,8.79,7.75-2.11-6.73-8.4Z"/></g></g></svg>