<?xml version="1.0" encoding="utf-8"?>
<!-- Generator: Adobe Illustrator 25.1.0, SVG Export Plug-In . SVG Version: 6.00 Build 0)  -->
<svg version="1.1" id="Layer_1" xmlns="http://www.w3.org/2000/svg" xmlns:xlink="http://www.w3.org/1999/xlink" x="0px" y="0px"
	 viewBox="0 0 300 40.7" style="enable-background:new 0 0 300 40.7;" xml:space="preserve">
<style type="text/css">
	.st0{fill:#FFFFFF;}
	.st1{fill:#40BBFF;}
</style>
<g id="Layer_2_1_">
	<g id="Layer_1-2">
		<path class="st0" d="M27.2,39.5C13.8,44.5-1,33.5,0,19.2C0.5,6.3,14.1-3.1,26.3,0.9c3.6,1.2,1.9,6.5-1.7,5.4
			c-7.7-2.4-16,2-18.3,9.7s2,16,9.7,18.3s16-2,18.3-9.7c0.3-1.1,0.6-2.3,0.6-3.4c0.1-1.6,1.4-2.8,3-2.7c1.6,0.1,2.8,1.4,2.7,3
			C40.2,29.7,34.9,36.8,27.2,39.5z"/>
		<path class="st1" d="M21.6,27.2c-0.7,0.1-1.5-0.2-2-0.7L13,20.7c-2.6-2.4,0.9-6.4,3.7-4.1l4.5,4L31.9,9.2c2.4-2.7,6.5,0.9,4.1,3.7
			L23.5,26.3C23,26.9,22.3,27.2,21.6,27.2z"/>
		<path class="st0" d="M59.8,15.3c-1-0.6-2.2-0.9-3.3-0.8c-3.6-0.2-6.7,3-6.5,6.5c0,2.2,1,4.5,2.9,5.6c0.9,0.5,2,0.8,3.1,0.8
			c1.9,0,3.7-1.1,4.6-2.7c0.3,2.8-0.9,5.8-4.1,5.8c-0.7,0-1.5-0.1-2.2-0.4c-0.6-0.3-1.2-0.7-1.6-1.3c-0.2-0.3-0.6-0.5-1-0.5
			c-0.2,0-0.5,0.1-0.7,0.2c-0.3,0.2-0.5,0.5-0.5,0.8c0,0.2,0.1,0.5,0.2,0.7c1.3,1.7,3.5,2.6,5.6,2.6c3.6,0.2,6.6-3.1,6.5-6.7v-5
			C62.9,18.7,61.8,16.4,59.8,15.3z M60.1,23.2c-1,2.1-3.8,2.7-5.7,1.5c-2.7-1.5-2.7-6.1,0-7.6c1.3-0.7,3-0.7,4.3,0
			c1.3,0.8,2,2.4,2,3.9C60.6,21.8,60.4,22.5,60.1,23.2z M77,14.5c-0.3,0-0.6,0.1-0.9,0.3c-0.2,0.2-0.3,0.5-0.3,0.9v6.6
			c0,0.5-0.2,1.1-0.5,1.5c-0.7,1-1.9,1.5-3.1,1.5c-1,0-2-0.3-2.7-1c-0.7-0.8-1.1-1.8-1-2.9v-5.7c0-0.6-0.5-1.2-1.2-1.2
			c-0.3,0-0.6,0.1-0.9,0.3c-0.2,0.2-0.3,0.5-0.3,0.9v5.7c0,1.1,0.2,2.2,0.7,3.2c0.9,1.8,2.9,2.7,4.9,2.7c1.4,0,2.9-0.5,3.9-1.5v0.3
			c0,0.6,0.6,1.2,1.2,1.2c0.7,0,1.2-0.5,1.2-1.2V15.7C78.2,15.1,77.7,14.5,77,14.5z M91.4,15.3c-1-0.6-2.1-0.9-3.3-0.9
			c-3.5-0.1-6.6,3-6.4,6.5c-0.2,5.7,6.7,8.8,10.5,4.3v0.9c0,0.7,0.5,1.2,1.2,1.2s1.2-0.5,1.2-1.2V21C94.6,18.7,93.4,16.5,91.4,15.3z
			 M91.7,23.2c-0.7,1.3-2.1,2.2-3.6,2.1c-3.3,0.1-5.2-3.9-3.6-6.6C87.6,13.7,94.3,18.2,91.7,23.2z M106.3,14.8
			c-0.6-0.3-1.3-0.4-1.9-0.4c-1.5,0-3,0.6-3.9,1.8v-0.4c0.1-0.7-0.5-1.3-1.2-1.2c-0.3,0-0.6,0.1-0.9,0.3c-0.2,0.2-0.3,0.5-0.3,0.9
			v10.4c-0.1,0.7,0.5,1.3,1.2,1.2c0.3,0,0.6-0.1,0.9-0.3c0.2-0.2,0.3-0.5,0.3-0.9v-6.8c0-0.8,0.3-1.6,1-2.1c0.8-0.5,1.7-0.8,2.7-0.8
			c0.5,0,1,0.1,1.5,0.2h0.3c0.5,0.1,0.9-0.2,1-0.7v-0.2C107,15.3,106.7,14.9,106.3,14.8z M117.5,15.3c-1-0.6-2.1-0.9-3.2-0.9
			c-3.5-0.1-6.6,3-6.4,6.5c-0.2,5.7,6.7,8.8,10.4,4.3v0.9c0,0.7,0.5,1.2,1.2,1.2s1.2-0.5,1.2-1.2c-0.1-2.2,0.5-6.5-0.9-8.5
			C119.3,16.7,118.5,15.9,117.5,15.3z M117.9,23.2c-0.7,1.3-2.1,2.2-3.6,2.1c-1.5,0-2.9-0.8-3.6-2.1c-1.1-2-0.5-4.8,1.5-6
			c1.3-0.8,2.9-0.8,4.2,0C118.4,18.3,118.9,21.2,117.9,23.2z M133.5,15.1c-2.2-1.2-5.1-0.9-6.9,0.9v-0.2c0-0.3-0.1-0.6-0.3-0.9
			c-0.5-0.4-1.2-0.4-1.7,0c-0.2,0.2-0.4,0.5-0.3,0.9v10.4c0,0.3,0.1,0.6,0.3,0.9c0.5,0.5,1.2,0.5,1.7,0c0.2-0.2,0.3-0.5,0.3-0.9
			v-6.6c0-1.1,0.7-2.1,1.7-2.6c0.6-0.3,1.2-0.4,1.8-0.4c1,0,2,0.3,2.7,1c0.7,0.8,1.1,1.8,1,2.9v5.7c0,0.6,0.5,1.2,1.2,1.1
			c0.7,0,1.2-0.5,1.2-1.2v-5.7C136.2,18.4,135.4,16.2,133.5,15.1z M145.6,25h-0.8c-1.1,0-1.8-1.2-1.8-2.2V17h2c0.6,0,1.1-0.4,1.1-1
			s-0.6-1.1-1.2-1.1h-2v-3.3c0-0.6-0.5-1.2-1.2-1.2c-0.6,0-1.2,0.5-1.2,1.2v3.3h-1.1c-0.3,0-0.6,0.1-0.8,0.3s-0.3,0.5-0.3,0.7
			c0,0.3,0.1,0.5,0.3,0.7s0.5,0.3,0.8,0.3h1.1v5.8c-0.1,2.5,2,4.8,4.5,4.5c0.7,0,1.4-0.4,1.4-1.2c0-0.3-0.1-0.6-0.3-0.9
			C146.1,25.1,145.9,25,145.6,25z M158.3,15.3c-4.1-2.5-9.7,0.9-9.4,5.7c-0.2,5.6,6.7,8.3,10.9,5c0.5-0.3,0.5-1.1,0-1.5
			c-1-0.7-1.7,0.4-2.7,0.6c-2.6,1.1-5.6-0.6-6-3.4h8.9c0.6,0,1.1-0.4,1.1-1C161.1,18.6,160.1,16.5,158.3,15.3z M151.1,19.9
			c0.6-4.4,7.3-4.7,7.8,0H151.1z M172.3,15.3c-4.1-2.5-9.7,0.9-9.4,5.7c-0.2,5.6,6.7,8.3,10.9,5c0.5-0.3,0.5-1.1,0-1.5
			c-1-0.7-1.7,0.4-2.7,0.6c-2.6,1-5.5-0.7-5.9-3.4h8.9c0.3,0,0.6-0.1,0.8-0.3c0.2-0.2,0.3-0.4,0.3-0.7
			C175.2,18.6,174.1,16.5,172.3,15.3L172.3,15.3z M165.1,19.9c0.6-4.4,7.3-4.7,7.8,0H165.1z M188.6,9.1c-0.3,0-0.6,0.1-0.9,0.3
			c-0.2,0.2-0.3,0.5-0.3,0.9v6.3c-1.9-2.2-5.1-2.8-7.6-1.3c-4,2.3-3.9,9.1,0.2,11.2c3.1,1.8,7,0.7,8.9-2.3c0.6-1,0.9-2.1,0.9-3.3
			V10.3C189.8,9.6,189.2,9.1,188.6,9.1L188.6,9.1z M187,23.2c-3.1,5-9.8,0.5-7.2-4.5C182.9,13.8,189.5,18.1,187,23.2z M194.6,24.5
			c-0.4,0-0.8,0.2-1.1,0.5c-0.6,0.6-0.6,1.7,0,2.3c0.3,0.3,0.7,0.5,1.1,0.5c0.9,0,1.6-0.7,1.6-1.6c0-0.4-0.2-0.9-0.5-1.1
			C195.5,24.6,195.1,24.5,194.6,24.5z"/>
		<path class="st0" d="M208.1,21.2c-1.1-0.8-2.3-1.2-3.6-1.4c-0.6-0.1-1.3-0.3-1.9-0.5c-0.3-0.1-0.6-0.3-0.9-0.6
			c-0.2-0.2-0.2-0.5-0.2-0.8c0-0.4,0.3-0.8,0.7-1c0.5-0.3,1.2-0.4,1.8-0.4c0.5,0,1.1,0.1,1.6,0.2c1,0.3,1.8,1.8,3,1
			c0.2-0.2,0.4-0.4,0.4-0.7c0-0.3-0.1-0.5-0.3-0.7c-1.7-1.9-4.6-2.2-6.9-1.4c-1.3,0.4-2.5,1.7-2.4,3.1c0,1.9,1.5,3.1,4.5,3.7
			c0.9,0.1,1.7,0.4,2.5,0.8c0.4,0.3,0.7,0.7,0.7,1.2c0,1.4-1.7,1.7-2.8,1.6c-0.6,0-1.3-0.1-1.9-0.4c-0.5-0.2-1-0.5-1.3-0.9
			c-0.2-0.3-0.5-0.4-0.9-0.4c-0.3,0-0.6,0.1-0.8,0.3c-0.3,0.2-0.5,0.5-0.5,0.9c0,0.3,0.1,0.5,0.3,0.7c0.6,0.6,1.4,1,2.2,1.3
			c1,0.3,2,0.5,3,0.5c1.6,0,3.5-0.5,4.4-1.9c0.4-0.6,0.6-1.3,0.6-2C209.2,22.7,208.8,21.8,208.1,21.2L208.1,21.2z M221.3,15.3
			c-1-0.6-2.1-0.8-3.3-0.8c-3.6-0.2-6.6,2.9-6.4,6.5c-0.2,3.5,2.9,6.6,6.4,6.5c3.5,0.2,6.6-2.9,6.4-6.5
			C224.5,18.7,223.3,16.4,221.3,15.3L221.3,15.3z M221.6,23.2c-0.7,1.3-2.1,2.1-3.6,2.1c-5.5,0.1-5.5-8.8,0-8.7
			c2.4-0.1,4.2,2.1,4.1,4.4C222.1,21.7,221.9,22.5,221.6,23.2z M233.4,9.1c-3-0.2-5.4,2.6-5.3,5.5V15h-1c-0.6,0-1.1,0.4-1.1,1
			c0,0.3,0.1,0.5,0.3,0.7s0.5,0.3,0.8,0.3h1v9.1c0,0.3,0.1,0.6,0.3,0.9c0.2,0.2,0.5,0.3,0.8,0.3s0.7-0.1,0.9-0.3
			c0.2-0.2,0.3-0.5,0.3-0.9V17h2.4c0.6,0,1.1-0.4,1.1-1c0-0.3-0.1-0.5-0.3-0.7s-0.5-0.3-0.8-0.3h-2.4v-0.6c0-0.8,0.2-1.7,0.8-2.3
			c0.5-0.6,1.3-0.9,2.1-0.8c0.3,0,0.6-0.1,0.9-0.3c0.4-0.4,0.4-1.1,0-1.5C234.1,9.2,233.8,9.1,233.4,9.1z M242,25h-0.8
			c-1.1,0-1.8-1.2-1.8-2.2V17h2c0.3,0,0.6-0.1,0.8-0.3c0.2-0.2,0.3-0.4,0.3-0.7c0-0.6-0.5-1.1-1.1-1h-2v-3.3c0-0.3-0.1-0.6-0.3-0.9
			c-0.2-0.2-0.5-0.3-0.9-0.3c-0.3,0-0.6,0.1-0.8,0.3s-0.3,0.5-0.3,0.9V15H236c-0.3,0-0.6,0.1-0.8,0.3s-0.3,0.5-0.3,0.7
			c0,0.3,0.1,0.5,0.3,0.7s0.5,0.3,0.8,0.3h1.1v5.8c-0.1,2.5,2,4.8,4.5,4.5c0.7,0,1.4-0.4,1.4-1.2c0-0.3-0.1-0.6-0.3-0.9
			C242.5,25.1,242.3,25,242,25z M259.4,14.6c-0.6,0-1,0.4-1.2,1.1l-2.6,8l-2.1-8.2c-0.1-0.3-0.2-0.5-0.4-0.6
			c-0.2-0.2-0.5-0.3-0.7-0.2c-0.3,0-0.5,0.1-0.8,0.2c-0.2,0.2-0.3,0.4-0.4,0.6l-2.4,8.1l-2.5-7.9c-0.1-0.3-0.3-0.6-0.5-0.8
			s-0.5-0.3-0.7-0.2c-0.6-0.1-1.1,0.4-1,1c0,0.2,0,0.4,0.1,0.6l3.4,10.4c0.1,0.2,0.2,0.4,0.4,0.5c0.4,0.3,1,0.3,1.4,0
			c0.2-0.1,0.3-0.3,0.4-0.5l2.4-8.5l2.3,8.5c0.1,0.2,0.2,0.4,0.4,0.5c0.2,0.2,0.5,0.2,0.7,0.2s0.5-0.1,0.7-0.2
			c0.2-0.1,0.3-0.3,0.4-0.5l3.5-10.4c0.1-0.2,0.1-0.4,0.1-0.7s-0.1-0.5-0.2-0.7C259.9,14.6,259.7,14.6,259.4,14.6L259.4,14.6z
			 M271.4,15.3c-1-0.6-2.1-0.9-3.2-0.9c-3.5-0.1-6.6,3-6.5,6.5c-0.2,5.7,6.7,8.8,10.5,4.3v0.9c0,0.7,0.5,1.2,1.2,1.2
			s1.2-0.5,1.2-1.2c-0.1-2.2,0.5-6.5-0.9-8.5C273.2,16.7,272.4,15.9,271.4,15.3L271.4,15.3z M271.8,23.2c-0.7,1.3-2.1,2.2-3.6,2.1
			c-1.5,0-2.9-0.8-3.6-2.1c-1.1-2-0.5-4.8,1.5-6c1.3-0.8,2.9-0.8,4.2,0C272.3,18.3,272.8,21.2,271.8,23.2z M286.3,14.8
			c-0.6-0.3-1.3-0.4-1.9-0.4c-1.5,0-3,0.6-3.9,1.8v-0.4c0.1-0.7-0.5-1.3-1.2-1.2c-0.3,0-0.6,0.1-0.9,0.3c-0.2,0.2-0.3,0.6-0.3,0.9
			v10.4c0,0.3,0.1,0.6,0.3,0.9c0.2,0.2,0.6,0.3,0.9,0.3s0.6-0.1,0.9-0.3c0.2-0.2,0.3-0.5,0.3-0.9v-6.8c0-0.8,0.3-1.6,1-2.1
			c0.8-0.5,1.7-0.8,2.7-0.8c0.5,0,1,0.1,1.5,0.2h0.4c0.4,0,0.9-0.3,1-0.7v-0.2C287,15.3,286.7,15,286.3,14.8z M299.7,21.5
			c0.2-0.2,0.3-0.4,0.3-0.7c0.2-3.3-2.4-6.5-5.8-6.3c-3.5-0.2-6.5,3-6.3,6.5c-0.2,4.6,4.8,7.7,8.9,6.1c0.7-0.2,1.4-0.6,2-1
			c0.2-0.2,0.4-0.4,0.4-0.7c0-0.3-0.2-0.6-0.4-0.8c-0.2-0.2-0.4-0.2-0.7-0.2c-0.3,0-0.6,0.1-0.8,0.3c-0.4,0.3-0.8,0.5-1.2,0.6
			c-1.5,0.5-3.2,0.2-4.5-0.8c-0.8-0.7-1.3-1.6-1.5-2.6h8.9C299.2,21.8,299.5,21.7,299.7,21.5z M290.1,19.9c0.1-1,0.6-1.8,1.3-2.5
			c0.8-0.7,1.8-1,2.8-0.9c0.9,0,1.8,0.3,2.5,0.9c0.7,0.7,1.1,1.6,1.2,2.5H290.1z"/>
	</g>
</g>
</svg>
