<svg xmlns="http://www.w3.org/2000/svg" viewBox="0 0 40.65 40.76"><defs><style>.cls-1{fill:#ffffff;}.cls-2{fill:#ffffff;}</style></defs><g id="Layer_2" data-name="Layer 2"><g id="Layer_1-2" data-name="Layer 1"><path class="cls-1" d="M27.25,39.53c-13.4,5-28.2-6-27.2-20.3.5-12.9,14.1-22.3,26.3-18.3a2.83,2.83,0,1,1-1.7,5.4,14.65,14.65,0,1,0,9.7,18.3,13.5,13.5,0,0,0,.6-3.4,2.85,2.85,0,1,1,5.7.3A20.08,20.08,0,0,1,27.25,39.53Z"/><path class="cls-2" d="M21.65,27.23a2.49,2.49,0,0,1-2-.7l-6.6-5.8c-2.6-2.4.9-6.4,3.7-4.1l4.5,4L32,9.23c2.4-2.7,6.5.9,4.1,3.7l-12.5,13.4A2.46,2.46,0,0,1,21.65,27.23Z"/></g></g></svg>