<svg version="1.1" id="Layer_1" xmlns="http://www.w3.org/2000/svg" x="0" y="0" viewBox="0 0 300 40.7" xml:space="preserve"><style>.st0{fill:#223a9d}.st1{fill:#0070ba}</style><g id="Layer_2_1_"><g id="Layer_1-2"><path class="st0" d="M27.2 39.5C13.8 44.5-1 33.5 0 19.2.5 6.3 14.1-3.1 26.3.9c3.6 1.2 1.9 6.5-1.7 5.4-7.7-2.4-16 2-18.3 9.7s2 16 9.7 18.3 16-2 18.3-9.7c.3-1.1.6-2.3.6-3.4.1-1.6 1.4-2.8 3-2.7 1.6.1 2.8 1.4 2.7 3-.4 8.2-5.7 15.3-13.4 18z"/><path class="st1" d="M21.6 27.2c-.7.1-1.5-.2-2-.7L13 20.7c-2.6-2.4.9-6.4 3.7-4.1l4.5 4L31.9 9.2c2.4-2.7 6.5.9 4.1 3.7L23.5 26.3c-.5.6-1.2.9-1.9.9z"/><path class="st0" d="M59.8 15.3c-1-.6-2.2-.9-3.3-.8-3.6-.2-6.7 3-6.5 6.5 0 2.2 1 4.5 2.9 5.6.9.5 2 .8 3.1.8 1.9 0 3.7-1.1 4.6-2.7.3 2.8-.9 5.8-4.1 5.8-.7 0-1.5-.1-2.2-.4-.6-.3-1.2-.7-1.6-1.3-.2-.3-.6-.5-1-.5-.2 0-.5.1-.7.2-.3.2-.5.5-.5.8 0 .2.1.5.2.7 1.3 1.7 3.5 2.6 5.6 2.6 3.6.2 6.6-3.1 6.5-6.7v-5c.1-2.2-1-4.5-3-5.6zm.3 7.9c-1 2.1-3.8 2.7-5.7 1.5-2.7-1.5-2.7-6.1 0-7.6 1.3-.7 3-.7 4.3 0 1.3.8 2 2.4 2 3.9-.1.8-.3 1.5-.6 2.2zM77 14.5c-.3 0-.6.1-.9.3-.2.2-.3.5-.3.9v6.6c0 .5-.2 1.1-.5 1.5-.7 1-1.9 1.5-3.1 1.5-1 0-2-.3-2.7-1-.7-.8-1.1-1.8-1-2.9v-5.7c0-.6-.5-1.2-1.2-1.2-.3 0-.6.1-.9.3-.2.2-.3.5-.3.9v5.7c0 1.1.2 2.2.7 3.2.9 1.8 2.9 2.7 4.9 2.7 1.4 0 2.9-.5 3.9-1.5v.3c0 .6.6 1.2 1.2 1.2.7 0 1.2-.5 1.2-1.2V15.7c.2-.6-.3-1.2-1-1.2zM91.4 15.3c-1-.6-2.1-.9-3.3-.9-3.5-.1-6.6 3-6.4 6.5-.2 5.7 6.7 8.8 10.5 4.3v.9c0 .7.5 1.2 1.2 1.2s1.2-.5 1.2-1.2V21c0-2.3-1.2-4.5-3.2-5.7zm.3 7.9c-.7 1.3-2.1 2.2-3.6 2.1-3.3.1-5.2-3.9-3.6-6.6 3.1-5 9.8-.5 7.2 4.5zM106.3 14.8c-.6-.3-1.3-.4-1.9-.4-1.5 0-3 .6-3.9 1.8v-.4c.1-.7-.5-1.3-1.2-1.2-.3 0-.6.1-.9.3-.2.2-.3.5-.3.9v10.4c-.1.7.5 1.3 1.2 1.2.3 0 .6-.1.9-.3.2-.2.3-.5.3-.9v-6.8c0-.8.3-1.6 1-2.1.8-.5 1.7-.8 2.7-.8.5 0 1 .1 1.5.2h.3c.5.1.9-.2 1-.7v-.2c0-.5-.3-.9-.7-1zM117.5 15.3c-1-.6-2.1-.9-3.2-.9-3.5-.1-6.6 3-6.4 6.5-.2 5.7 6.7 8.8 10.4 4.3v.9c0 .7.5 1.2 1.2 1.2s1.2-.5 1.2-1.2c-.1-2.2.5-6.5-.9-8.5-.5-.9-1.3-1.7-2.3-2.3zm.4 7.9c-.7 1.3-2.1 2.2-3.6 2.1-1.5 0-2.9-.8-3.6-2.1-1.1-2-.5-4.8 1.5-6 1.3-.8 2.9-.8 4.2 0 2 1.1 2.5 4 1.5 6zM133.5 15.1c-2.2-1.2-5.1-.9-6.9.9v-.2c0-.3-.1-.6-.3-.9-.5-.4-1.2-.4-1.7 0-.2.2-.4.5-.3.9v10.4c0 .3.1.6.3.9.5.5 1.2.5 1.7 0 .2-.2.3-.5.3-.9v-6.6c0-1.1.7-2.1 1.7-2.6.6-.3 1.2-.4 1.8-.4 1 0 2 .3 2.7 1 .7.8 1.1 1.8 1 2.9v5.7c0 .6.5 1.2 1.2 1.1.7 0 1.2-.5 1.2-1.2v-5.7c0-2-.8-4.2-2.7-5.3zM145.6 25h-.8c-1.1 0-1.8-1.2-1.8-2.2V17h2c.6 0 1.1-.4 1.1-1s-.6-1.1-1.2-1.1h-2v-3.3c0-.6-.5-1.2-1.2-1.2-.6 0-1.2.5-1.2 1.2v3.3h-1.1c-.3 0-.6.1-.8.3-.2.2-.3.5-.3.7 0 .3.1.5.3.7.2.2.5.3.8.3h1.1v5.8c-.1 2.5 2 4.8 4.5 4.5.7 0 1.4-.4 1.4-1.2 0-.3-.1-.6-.3-.9 0 0-.2-.1-.5-.1zM158.3 15.3c-4.1-2.5-9.7.9-9.4 5.7-.2 5.6 6.7 8.3 10.9 5 .5-.3.5-1.1 0-1.5-1-.7-1.7.4-2.7.6-2.6 1.1-5.6-.6-6-3.4h8.9c.6 0 1.1-.4 1.1-1 0-2.1-1-4.2-2.8-5.4zm-7.2 4.6c.6-4.4 7.3-4.7 7.8 0h-7.8zM172.3 15.3c-4.1-2.5-9.7.9-9.4 5.7-.2 5.6 6.7 8.3 10.9 5 .5-.3.5-1.1 0-1.5-1-.7-1.7.4-2.7.6-2.6 1-5.5-.7-5.9-3.4h8.9c.3 0 .6-.1.8-.3.2-.2.3-.4.3-.7 0-2.1-1.1-4.2-2.9-5.4zm-7.2 4.6c.6-4.4 7.3-4.7 7.8 0h-7.8zM188.6 9.1c-.3 0-.6.1-.9.3-.2.2-.3.5-.3.9v6.3c-1.9-2.2-5.1-2.8-7.6-1.3-4 2.3-3.9 9.1.2 11.2 3.1 1.8 7 .7 8.9-2.3.6-1 .9-2.1.9-3.3V10.3c0-.7-.6-1.2-1.2-1.2zM187 23.2c-3.1 5-9.8.5-7.2-4.5 3.1-4.9 9.7-.6 7.2 4.5zM194.6 24.5c-.4 0-.8.2-1.1.5-.6.6-.6 1.7 0 2.3.3.3.7.5 1.1.5.9 0 1.6-.7 1.6-1.6 0-.4-.2-.9-.5-1.1-.2-.5-.6-.6-1.1-.6z"/><path class="st1" d="M208.1 21.2c-1.1-.8-2.3-1.2-3.6-1.4-.6-.1-1.3-.3-1.9-.5-.3-.1-.6-.3-.9-.6-.2-.2-.2-.5-.2-.8 0-.4.3-.8.7-1 .5-.3 1.2-.4 1.8-.4.5 0 1.1.1 1.6.2 1 .3 1.8 1.8 3 1 .2-.2.4-.4.4-.7 0-.3-.1-.5-.3-.7-1.7-1.9-4.6-2.2-6.9-1.4-1.3.4-2.5 1.7-2.4 3.1 0 1.9 1.5 3.1 4.5 3.7.9.1 1.7.4 2.5.8.4.3.7.7.7 1.2 0 1.4-1.7 1.7-2.8 1.6-.6 0-1.3-.1-1.9-.4-.5-.2-1-.5-1.3-.9-.2-.3-.5-.4-.9-.4-.3 0-.6.1-.8.3-.3.2-.5.5-.5.9 0 .3.1.5.3.7.6.6 1.4 1 2.2 1.3 1 .3 2 .5 3 .5 1.6 0 3.5-.5 4.4-1.9.4-.6.6-1.3.6-2-.2-.7-.6-1.6-1.3-2.2zM221.3 15.3c-1-.6-2.1-.8-3.3-.8-3.6-.2-6.6 2.9-6.4 6.5-.2 3.5 2.9 6.6 6.4 6.5 3.5.2 6.6-2.9 6.4-6.5.1-2.3-1.1-4.6-3.1-5.7zm.3 7.9c-.7 1.3-2.1 2.1-3.6 2.1-5.5.1-5.5-8.8 0-8.7 2.4-.1 4.2 2.1 4.1 4.4 0 .7-.2 1.5-.5 2.2zM233.4 9.1c-3-.2-5.4 2.6-5.3 5.5v.4h-1c-.6 0-1.1.4-1.1 1 0 .3.1.5.3.7.2.2.5.3.8.3h1v9.1c0 .3.1.6.3.9.2.2.5.3.8.3.3 0 .7-.1.9-.3.2-.2.3-.5.3-.9V17h2.4c.6 0 1.1-.4 1.1-1 0-.3-.1-.5-.3-.7-.2-.2-.5-.3-.8-.3h-2.4v-.6c0-.8.2-1.7.8-2.3.5-.6 1.3-.9 2.1-.8.3 0 .6-.1.9-.3.4-.4.4-1.1 0-1.5-.1-.3-.4-.4-.8-.4zM242 25h-.8c-1.1 0-1.8-1.2-1.8-2.2V17h2c.3 0 .6-.1.8-.3.2-.2.3-.4.3-.7 0-.6-.5-1.1-1.1-1h-2v-3.3c0-.3-.1-.6-.3-.9-.2-.2-.5-.3-.9-.3-.3 0-.6.1-.8.3-.2.2-.3.5-.3.9V15H236c-.3 0-.6.1-.8.3-.2.2-.3.5-.3.7 0 .3.1.5.3.7.2.2.5.3.8.3h1.1v5.8c-.1 2.5 2 4.8 4.5 4.5.7 0 1.4-.4 1.4-1.2 0-.3-.1-.6-.3-.9-.2-.1-.4-.2-.7-.2zM259.4 14.6c-.6 0-1 .4-1.2 1.1l-2.6 8-2.1-8.2c-.1-.3-.2-.5-.4-.6-.2-.2-.5-.3-.7-.2-.3 0-.5.1-.8.2-.2.2-.3.4-.4.6l-2.4 8.1-2.5-7.9c-.1-.3-.3-.6-.5-.8-.2-.2-.5-.3-.7-.2-.6-.1-1.1.4-1 1 0 .2 0 .4.1.6l3.4 10.4c.1.2.2.4.4.5.4.3 1 .3 1.4 0 .2-.1.3-.3.4-.5l2.4-8.5 2.3 8.5c.1.2.2.4.4.5.2.2.5.2.7.2.2 0 .5-.1.7-.2.2-.1.3-.3.4-.5l3.5-10.4c.1-.2.1-.4.1-.7 0-.3-.1-.5-.2-.7-.2-.3-.4-.3-.7-.3zM271.4 15.3c-1-.6-2.1-.9-3.2-.9-3.5-.1-6.6 3-6.5 6.5-.2 5.7 6.7 8.8 10.5 4.3v.9c0 .7.5 1.2 1.2 1.2s1.2-.5 1.2-1.2c-.1-2.2.5-6.5-.9-8.5-.5-.9-1.3-1.7-2.3-2.3zm.4 7.9c-.7 1.3-2.1 2.2-3.6 2.1-1.5 0-2.9-.8-3.6-2.1-1.1-2-.5-4.8 1.5-6 1.3-.8 2.9-.8 4.2 0 2 1.1 2.5 4 1.5 6zM286.3 14.8c-.6-.3-1.3-.4-1.9-.4-1.5 0-3 .6-3.9 1.8v-.4c.1-.7-.5-1.3-1.2-1.2-.3 0-.6.1-.9.3-.2.2-.3.6-.3.9v10.4c0 .3.1.6.3.9.2.2.6.3.9.3.3 0 .6-.1.9-.3.2-.2.3-.5.3-.9v-6.8c0-.8.3-1.6 1-2.1.8-.5 1.7-.8 2.7-.8.5 0 1 .1 1.5.2h.4c.4 0 .9-.3 1-.7v-.2c-.1-.5-.4-.8-.8-1zM299.7 21.5c.2-.2.3-.4.3-.7.2-3.3-2.4-6.5-5.8-6.3-3.5-.2-6.5 3-6.3 6.5-.2 4.6 4.8 7.7 8.9 6.1.7-.2 1.4-.6 2-1 .2-.2.4-.4.4-.7 0-.3-.2-.6-.4-.8-.2-.2-.4-.2-.7-.2-.3 0-.6.1-.8.3-.4.3-.8.5-1.2.6-1.5.5-3.2.2-4.5-.8-.8-.7-1.3-1.6-1.5-2.6h8.9c.2-.1.5-.2.7-.4zm-9.6-1.6c.1-1 .6-1.8 1.3-2.5.8-.7 1.8-1 2.8-.9.9 0 1.8.3 2.5.9.7.7 1.1 1.6 1.2 2.5h-7.8z"/></g></g></svg>