<svg xmlns="http://www.w3.org/2000/svg" viewBox="0 0 276.22 503.6"><defs><style>.cls-1{fill:#1b67d8;}.cls-2{fill:#8fc1ae;}</style></defs><g id="Layer_2" data-name="Layer 2"><g id="Capa_1" data-name="Capa 1"><path class="cls-1" d="M223.63,0H53.5C24.58,0,0,23.58,0,52.5V451.16c0,28.92,24.06,52.44,53,52.44l170.41-.18A52.62,52.62,0,0,0,276,451l.25-398.5A52.51,52.51,0,0,0,223.63,0ZM114,31.48h49.36a7.87,7.87,0,1,1,0,15.73H114a7.87,7.87,0,1,1,0-15.73ZM84.33,34a8.15,8.15,0,0,1,11.13,0,7.85,7.85,0,1,1-11.13,0Zm52.75,454a23.55,23.55,0,1,1,23.54-23.55A23.58,23.58,0,0,1,137.08,488Zm114.72-63.1H27.54V74.76H251.8V424.91Z"/><rect class="cls-2" x="58.04" y="112.5" width="159.14" height="272.48"/></g></g></svg>