<svg xmlns="http://www.w3.org/2000/svg" viewBox="0 0 448 448"><defs><style>.cls-1{fill:#1b67d8;}.cls-2{fill:#8fc1ae;}</style></defs><g id="Layer_2" data-name="Layer 2"><g id="Layer_1-2" data-name="Layer 1"><path class="cls-1" d="M352,240H320a16,16,0,0,0,0,32h32a16,16,0,0,0,0-32Z"/><path class="cls-1" d="M352,288H320a16,16,0,0,0,0,32h32a16,16,0,0,0,0-32Z"/><path class="cls-1" d="M104,344V240a8,8,0,0,1,8-8h48a24,24,0,0,0,0-48H104a24.07,24.07,0,0,0-24,24v32L95.28,400H259.84l22.4-32H128a24.07,24.07,0,0,1-24-24Z"/><path class="cls-1" d="M288,304a31.77,31.77,0,0,1,11-24,31.61,31.61,0,0,1-3.43-44.57A30.86,30.86,0,0,1,299,232a31.61,31.61,0,0,1-3.43-44.57A30.86,30.86,0,0,1,299,184a31.88,31.88,0,0,1,21-56h8V112H312a8,8,0,0,1-8-8V24a8,8,0,0,1,8-8h16V8a8,8,0,0,0-8-8H302.24L298.8,13.84A24,24,0,0,1,275.52,32h-103A24,24,0,0,1,149.2,13.84L145.76,0H128a8,8,0,0,0-8,8V40h32a8,8,0,0,1,8,8v96a8,8,0,0,1-8,8H120v16h40a40,40,0,0,1,0,80H120v96a8,8,0,0,0,8,8H320a8,8,0,0,0,8-8v-8h-8A32,32,0,0,1,288,304ZM152,336H136V320h16Zm128,0H168V320H280Z"/><path class="cls-1" d="M96,416H256v32H96Z"/><path class="cls-1" d="M172.48,16h103a8,8,0,0,0,7.76-6.08L285.76,0H162.24l2.48,9.92A8,8,0,0,0,172.48,16Z"/><path class="cls-2" d="M144,56H0v80H144ZM16,72H32V88H16Zm112,48H16V104H128Zm0-32H48V72h80Z"/><path class="cls-1" d="M304,160a16,16,0,0,0,16,16h32a16,16,0,0,0,0-32H320A16,16,0,0,0,304,160Z"/><path class="cls-2" d="M320,96H448V32H320Zm64-40h48V72H384Zm-48,0h32V72H336Z"/><path class="cls-1" d="M352,192H320a16,16,0,0,0,0,32h32a16,16,0,0,0,0-32Z"/></g></g></svg>