<svg xmlns="http://www.w3.org/2000/svg" viewBox="0 0 100 100"><defs><style>.cls-1{fill:#4e2fb8;}.cls-2{fill:#fff;}.cls-2,.cls-3,.cls-4,.cls-5{fill-rule:evenodd;}.cls-3{fill:#a6a385;}.cls-4{fill:#499d4a;}.cls-5{fill:#58aa50;}</style></defs><g id="Layer_2" data-name="Layer 2"><g id="Capa_1" data-name="Capa 1"><circle class="cls-1" cx="50" cy="50" r="50"/><path class="cls-2" d="M55.85,67.08c-.09,0-.18.22-.18.33,0,.72,0,2.62,0,3.91a.14.14,0,0,0,.11.11c.27,0,.92,0,1.47,0a3.81,3.81,0,0,0,1.47-.21,1.89,1.89,0,0,0,1-1.8c0-1.74-1.22-2.4-3-2.4a2.88,2.88,0,0,0-.75,0Zm4.63,8c0-1.78-1.31-2.77-3.68-2.77-.11,0-.86,0-1,0s-.13,0-.13.11c0,1.27,0,3.3,0,4.09a1.35,1.35,0,0,0,.59,1,4.08,4.08,0,0,0,1.56.22,2.45,2.45,0,0,0,2.66-2.64Zm-8.29-9c.18,0,.71.05,2.1.05s2.35,0,3.62,0c1.56,0,3.72.55,3.72,2.88a2.83,2.83,0,0,1-1.87,2.52s0,0,0,.07c1.51.38,2.84,1.31,2.84,3.07A3.77,3.77,0,0,1,60,78.16a8.65,8.65,0,0,1-3.34.55c-.92,0-3.38-.1-4.74-.07-.14,0,.13-.7.25-.8a3.34,3.34,0,0,0,.92-.15c.48-.12.54-.27.61-1s0-2.86,0-4.44c0-2.17,0-3.64,0-4.36,0-.55-.21-.73-.61-.84s-.8-.13-1.22-.18c-.09-.09.22-.7.33-.77ZM41.83,77.26a3.61,3.61,0,0,0,2,.49,4,4,0,0,0,2.87-1,5.46,5.46,0,0,0,1.61-4.31A5.14,5.14,0,0,0,46,67.77,6.28,6.28,0,0,0,42.62,67a2.69,2.69,0,0,0-1,.12.58.58,0,0,0-.18.29c0,.36,0,3.12,0,4.74s0,4,0,4.27a1.11,1.11,0,0,0,.4.86ZM37.76,66.1c.34,0,1.65.05,2.27.05,1.14,0,1.94-.05,4.08-.05a6.63,6.63,0,0,1,4.38,1.4,5.81,5.81,0,0,1,2,4.59A6,6,0,0,1,48,77.26a8.25,8.25,0,0,1-5.15,1.45c-1.22,0-3.32,0-5.06,0h0c-.09-.16.15-.79.29-.81a2.78,2.78,0,0,0,.83-.16c.37-.14.44-.34.5-1,0-1.24,0-2.73,0-4.42,0-1.2,0-3.55,0-4.31s-.33-.79-.87-.89a8.65,8.65,0,0,0-1.13-.18c-.07-.13.26-.69.35-.79Z"/><path class="cls-2" d="M58.48,58.46a3.82,3.82,0,0,1-1.17-.31.53.53,0,0,1-.14-.28c0-.63,0-2.43,0-3.63a4.23,4.23,0,0,0-.58-2.4,2.42,2.42,0,0,0-2.08-1.08,4.83,4.83,0,0,0-2.73,1.29s-.16.14-.14,0,0-.59,0-.86a.46.46,0,0,0-.12-.38,12.2,12.2,0,0,1-2.79.72c-.43.09-.53.5-.09.64h0a4.15,4.15,0,0,1,1.06.47.55.55,0,0,1,.16.5c0,1.35,0,3.41,0,4.54,0,.45-.15.61-.47.69l0,0c-.26.05-.45.1-.76.14a1,1,0,0,0,0,.81c.2,0,1.24-.06,2.1-.06,1.19,0,1.8.06,2.1.06a1.16,1.16,0,0,0,.09-.81,3.48,3.48,0,0,1-.82-.12c-.33-.08-.42-.24-.44-.62,0-1,0-3,0-4.32a.87.87,0,0,1,.21-.66,2.74,2.74,0,0,1,1.67-.62,1.8,1.8,0,0,1,1.24.42,1.77,1.77,0,0,1,.58,1.13c.09.77,0,2.3,0,3.62,0,.72,0,.9-.32,1a3,3,0,0,1-.83.16,1.08,1.08,0,0,0,0,.81c.52,0,1.13,0,2,0,1.11,0,1.83,0,2.12,0a1.26,1.26,0,0,0,0-.77Zm5-6.86c-1,0-1.54.74-1.54,1.89s.52,2.51,2,2.51a1.43,1.43,0,0,0,.94-.36A2.38,2.38,0,0,0,65.41,54c0-1.49-.74-2.39-2-2.39Zm-.12,7.94a1.54,1.54,0,0,0-.77.19c-.76.49-1.1,1-1.1,1.51a1.59,1.59,0,0,0,.63,1.29,3.18,3.18,0,0,0,2.15.67c1.83,0,2.64-1,2.64-2a1.37,1.37,0,0,0-1-1.38,7.15,7.15,0,0,0-2.51-.32Zm.12,4.66a4,4,0,0,1-2.56-.75,2.35,2.35,0,0,1-1-1.78,1.38,1.38,0,0,1,.35-.9A10,10,0,0,1,62,59.45a.09.09,0,0,0,0-.08s0-.07-.07-.09a1.68,1.68,0,0,1-1.17-1.13v0a.27.27,0,0,1,.11-.33c.12-.09.3-.19.5-.32a7.52,7.52,0,0,0,.83-.54.13.13,0,0,0,0-.1.1.1,0,0,0-.07-.09A2.62,2.62,0,0,1,60.28,54a2.71,2.71,0,0,1,1.15-2.26A5.18,5.18,0,0,1,64,50.85h0a5.65,5.65,0,0,1,2,.43,3.21,3.21,0,0,0,1.16.18A1.56,1.56,0,0,0,68.46,51a1.07,1.07,0,0,1,.07.36,1.35,1.35,0,0,1-.23.83,1,1,0,0,1-.79.34h-.09L67,52.45l-.07,0s0,.07,0,.13l0,0c0,.17.11.65.11.78A2.91,2.91,0,0,1,65.8,56a4.2,4.2,0,0,1-2.1.81h-.25l-.23,0h0c-.14,0-.5.22-.5.52s.16.59.93.65c.16,0,.33,0,.51,0a17.39,17.39,0,0,1,2.89.36,2,2,0,0,1,1.34,1.92,3.94,3.94,0,0,1-2.53,3.34,5.78,5.78,0,0,1-2.39.52ZM73.68,51.69a1.7,1.7,0,0,0-1,.27,2.77,2.77,0,0,0-1,2.55c0,2.35,1.18,4,2.87,4a1.82,1.82,0,0,0,1.24-.43,3.18,3.18,0,0,0,.79-2.49c0-2.34-1.17-3.9-2.88-3.9ZM74,59.37c-3.05,0-4.15-2.24-4.15-4.34a3.88,3.88,0,0,1,1.78-3.41,5.4,5.4,0,0,1,2.74-.81,3.85,3.85,0,0,1,4,4.08,4.18,4.18,0,0,1-1.88,3.71,5,5,0,0,1-2.46.77ZM42,51.69a1.68,1.68,0,0,0-1,.27A2.77,2.77,0,0,0,40,54.51c0,2.35,1.19,4,2.88,4a1.79,1.79,0,0,0,1.23-.43,3.14,3.14,0,0,0,.79-2.49c0-2.34-1.14-3.9-2.87-3.9Zm.33,7.68c-3.06,0-4.15-2.24-4.15-4.34A3.88,3.88,0,0,1,40,51.62a5.4,5.4,0,0,1,2.74-.81,3.85,3.85,0,0,1,4,4.08A4.16,4.16,0,0,1,44.8,58.6a4.77,4.77,0,0,1-2.45.77Zm-20.52-.18a.7.7,0,0,1,0-.41.63.63,0,0,1,0-.27,6.27,6.27,0,0,0,.79-.16c.36-.09.5-.29.52-.73.05-1.08.05-3.13,0-4.55v0a.53.53,0,0,0-.2-.5,3.89,3.89,0,0,0-1.08-.47c-.16,0-.27-.14-.25-.25s.11-.24.34-.27a13.55,13.55,0,0,0,2.75-.7.46.46,0,0,1,.09.29l0,.19a6.71,6.71,0,0,0,0,.67c0,.07.08.12.15.12l.11,0a5,5,0,0,1,2.72-1.22,2.33,2.33,0,0,1,2.09,1.27.13.13,0,0,0,.12.07.14.14,0,0,0,.11-.05,5.44,5.44,0,0,1,2.82-1.29c1.67,0,2.65,1.23,2.65,3.33,0,.6,0,1.37,0,2.07s0,1.2,0,1.61a.58.58,0,0,0,.32.44,4.39,4.39,0,0,0,1,.25h0a1.42,1.42,0,0,1-.11.68,4,4,0,0,1-.45,0c-.34,0-.82,0-1.36,0-1.11,0-1.69,0-2.24.06a1.56,1.56,0,0,1,0-.68,5.55,5.55,0,0,0,.68-.17c.36-.1.45-.26.46-.73s.08-3.25,0-4A1.77,1.77,0,0,0,32,52.16a3.18,3.18,0,0,0-1.83.7.27.27,0,0,0-.08.18v0a7.36,7.36,0,0,1,.08,1.47v1.16c0,.81,0,1.57,0,2.14a.52.52,0,0,0,.43.56,1.86,1.86,0,0,1,.27,0l.57.13a.86.86,0,0,1,0,.5.28.28,0,0,1-.07.18c-.61,0-1.24,0-2.15,0l-1.13,0-.81,0a1,1,0,0,1-.05-.36.51.51,0,0,1,.07-.32,1.09,1.09,0,0,1,.25,0l.57-.11c.31-.09.42-.25.43-.64a31.14,31.14,0,0,0,0-4.11,1.7,1.7,0,0,0-1.76-1.57,3.22,3.22,0,0,0-1.83.71.58.58,0,0,0-.17.41v1.06c0,1.29,0,2.9,0,3.6a.56.56,0,0,0,.5.56,4,4,0,0,0,.42.07l.32.06a1.48,1.48,0,0,1-.05.68l-.65,0c-.38,0-.86,0-1.4,0s-1.08,0-1.44,0a3.83,3.83,0,0,0-.66,0Z"/><path class="cls-3" d="M50.63,44.93l-.74-.26s.09-3.75-1.25-4c-.9-1,.14-44.15,3.37-.14A2.65,2.65,0,0,0,50.7,42a14.22,14.22,0,0,0-.07,2.91Z"/><path class="cls-4" d="M51,41.3a13,13,0,0,0,4.94-13c-1.45-6.41-4.88-8.51-5.26-9.31a9.58,9.58,0,0,1-.81-1.58l.27,17.82s-.55,5.46.86,6.12"/><path class="cls-5" d="M49.52,41.53s-6.05-4.12-5.69-11.39a15.31,15.31,0,0,1,5.44-11.49,1.71,1.71,0,0,0,.59-1.36c.37.8.3,12.07.36,13.4.16,5.12-.29,9.87-.7,10.84Z"/></g></g></svg>