<?xml version="1.0" encoding="utf-8"?>
<!-- Generator: Adobe Illustrator 25.1.0, SVG Export Plug-In . SVG Version: 6.00 Build 0)  -->
<svg version="1.1" id="Layer_1" xmlns="http://www.w3.org/2000/svg" xmlns:xlink="http://www.w3.org/1999/xlink" x="0px" y="0px"
	 viewBox="0 0 400 400" style="enable-background:new 0 0 400 400;" xml:space="preserve">
<style type="text/css">
	.st0{fill:#1B67D8;}
	.st1{fill:#FFFFFF;}
	.st2{fill:#8FC1AE;stroke:#8FC1AE;stroke-width:10;stroke-miterlimit:10;}
</style>
<circle class="st0" cx="200" cy="200" r="134.7"/>
<circle class="st1" cx="200" cy="140.3" r="13.3"/>
<rect x="186.7" y="173.5" class="st1" width="26.5" height="92.9"/>
<path class="st2" d="M335.9,64.1C299.6,27.9,251.3,7.9,200,7.9C144.7,7.9,93.2,31.2,56.7,72l3.4-23.8c0.5-3.4-1.8-6.6-5.3-7
	c-3.4-0.4-6.6,1.8-7,5.3l-6.7,46.4c-0.3,2.2,0.5,4.3,2.2,5.7c1.2,1,2.6,1.4,4,1.4c0.6,0,1.3-0.1,1.9-0.3l39.9-13.3
	c3.2-1.1,5.1-4.6,4-7.9c-1.1-3.2-4.6-5.1-7.9-4l-20,6.7C99.4,42.5,148,20.4,200,20.4c47.9,0,93.1,18.6,127,52.6s52.6,79.1,52.6,127
	c0,26.9-5.8,52.8-17.2,77c-1.5,3.1-0.1,6.8,2.9,8.3c0.9,0.4,1.7,0.6,2.7,0.6c2.4,0,4.5-1.3,5.6-3.6c12.3-25.9,18.5-53.5,18.5-82.3
	C392.1,148.7,372.1,100.5,335.9,64.1z"/>
<path class="st2" d="M356.7,301.4c-1.6-1.4-3.9-1.8-5.9-1.1l-39.9,13.3c-3.2,1.1-5.1,4.6-4,7.9c1.1,3.2,4.6,5.1,7.9,4l19.9-6.7
	c-15.1,17.1-33.5,31.5-53.9,41.7c-25.2,12.7-52.5,19.2-80.9,19.2c-47.9,0-93.1-18.6-127-52.6C39,293.1,20.4,247.9,20.4,200
	c0-26.9,5.8-52.8,17.2-77c1.5-3.1,0.1-6.8-2.9-8.3c-3.1-1.5-6.8-0.1-8.3,2.9c-12.3,25.9-18.5,53.5-18.5,82.3
	c0,51.3,19.9,99.6,56.2,135.9S148.6,392,200,392c30.4,0,59.5-6.9,86.5-20.6c21.3-10.8,40.7-25.8,56.8-43.6l-3.4,23.9
	c-0.5,3.4,1.8,6.6,5.3,7c0.3,0,0.6,0.1,0.9,0.1c3,0,5.7-2.3,6.1-5.4l6.7-46.4C359.1,304.9,358.3,302.8,356.7,301.4z"/>
</svg>
