<svg xmlns="http://www.w3.org/2000/svg" viewBox="0 0 512 512"><defs><style>.cls-1{fill:#8fc1ae;}.cls-2{fill:#4989d6;}</style></defs><g id="Layer_2" data-name="Layer 2"><g id="Capa_1" data-name="Capa 1"><path class="cls-1" d="M241,151h30v60H241Z"/><path class="cls-1" d="M346,151H301v75a15,15,0,0,1-15,15H226a15,15,0,0,1-15-15V151H166a15,15,0,0,0-15,15V346a15,15,0,0,0,15,15H346a15,15,0,0,0,15-15V166A15,15,0,0,0,346,151Z"/><path class="cls-2" d="M497,241H450.43C443.12,145.41,366.59,68.88,271,61.57V15a15,15,0,0,0-30,0V61.57C145.41,68.88,68.88,145.41,61.57,241H15a15,15,0,0,0,0,30H61.57C68.88,366.59,145.41,443.12,241,450.43V497a15,15,0,0,0,30,0V450.43c95.59-7.31,172.12-83.84,179.43-179.43H497a15,15,0,0,0,0-30ZM271,420.33V406a15,15,0,0,0-30,0v14.33C162,413.17,98.83,350,91.67,271H106a15,15,0,0,0,0-30H91.67C98.83,162,162,98.83,241,91.67V106a15,15,0,0,0,30,0V91.67C350,98.83,413.17,162,420.33,241H406a15,15,0,0,0,0,30h14.33C413.17,350,350,413.17,271,420.33Z"/></g></g></svg>