<?xml version="1.0" encoding="utf-8"?>
<!-- Generator: Adobe Illustrator 25.1.0, SVG Export Plug-In . SVG Version: 6.00 Build 0)  -->
<svg version="1.1" id="Layer_1" xmlns="http://www.w3.org/2000/svg" xmlns:xlink="http://www.w3.org/1999/xlink" x="0px" y="0px"
	 viewBox="0 0 512 512" style="enable-background:new 0 0 512 512;" xml:space="preserve">
<style type="text/css">
	.st0{fill:#1B67D8;}
	.st1{fill:#8FC1AE;}
</style>
<path class="st0" d="M204.5,302.6v73.5c0,5.1,3.3,9.7,8.2,11.3c1.2,0.4,2.5,0.6,3.7,0.6c3.7,0,7.3-1.7,9.6-4.8l43-58.5L204.5,302.6z
	"/>
<path class="st0" d="M441.2,25.7c-3.6-2.6-8.4-2.9-12.4-0.9L72.2,211.1c-4.2,2.2-6.7,6.7-6.4,11.4c0.4,4.8,3.5,8.8,8,10.3l99.1,33.9
	L384.1,86.2L220.7,283.1l166.1,56.8c1.2,0.4,2.5,0.6,3.8,0.6c2.2,0,4.3-0.6,6.2-1.7c3-1.8,5.1-4.9,5.6-8.4l43.6-293.2
	C446.7,32.7,444.8,28.3,441.2,25.7z"/>
<path class="st1" d="M261.9,442.2c-2.4,0-4.9-0.7-7-2.2c-5.7-3.9-7.2-11.7-3.3-17.4l7-10.4c3.9-5.7,11.7-7.2,17.4-3.3
	c5.7,3.9,7.2,11.7,3.3,17.4l-7,10.4C269.8,440.3,265.9,442.2,261.9,442.2z"/>
<path class="st1" d="M150.3,501c-2.4,0-4.9-0.7-7.1-2.2c-5.7-3.9-7.1-11.7-3.2-17.4l34.6-50.2c3.9-5.7,11.7-7.1,17.4-3.2
	c5.7,3.9,7.1,11.7,3.2,17.4l-34.6,50.2C158.2,499.1,154.3,501,150.3,501z"/>
<path class="st1" d="M91.2,405.3c-2.4,0-4.9-0.7-7.1-2.2c-5.7-3.9-7.1-11.7-3.2-17.4l24.1-35c3.9-5.7,11.7-7.1,17.4-3.2
	c5.7,3.9,7.1,11.7,3.2,17.4l-24.1,35C99.1,403.4,95.1,405.3,91.2,405.3z"/>
</svg>
