<svg xmlns="http://www.w3.org/2000/svg" viewBox="0 0 512 512"><defs><style>.cls-1{fill:#8fc1ae;}.cls-2{fill:#4989d6;}</style></defs><g id="Layer_2" data-name="Layer 2"><g id="Capa_1" data-name="Capa 1"><path class="cls-1" d="M399.8,188.17a60,60,0,0,1,17.77,2.68l51.18-51.18L444.9,115.82l-72.35,72.35Z"/><path class="cls-1" d="M503.21,174.13,490,160.88l-46.35,46.35a59.78,59.78,0,0,1,16.18,40.94V260l43.41-43.41a30,30,0,0,0,0-42.43Z"/><path class="cls-1" d="M423.69,94.61,337.87,8.79a30,30,0,0,0-42.43,0L116.06,188.17H330.12Z"/><path class="cls-2" d="M78.73,313.26h45.71V347H78.73Z"/><path class="cls-2" d="M399.8,218.17H30a30,30,0,0,0-30,30V482a30,30,0,0,0,30,30H399.8a30,30,0,0,0,30-30V248.17A30,30,0,0,0,399.8,218.17ZM48.73,283.26H154.44V377H48.73ZM107.09,446.9H47.8v-30h59.29Zm91.64,0H139.44v-30h59.29Zm91.64,0h-59.3v-30h59.3Zm91.63,0H322.71v-30H382Z"/></g></g></svg>