<svg xmlns="http://www.w3.org/2000/svg" viewBox="0 0 512 441.69"><defs><style>.cls-1{fill:#1b67d8;}.cls-2{fill:#8fc1ae;}</style></defs><g id="Layer_2" data-name="Layer 2"><g id="Capa_1" data-name="Capa 1"><path class="cls-1" d="M241,0A254.28,254.28,0,0,0,85.67,64.36l66.94,66.94A160.46,160.46,0,0,1,241,94.67Z"/><path class="cls-1" d="M131.39,152.5,64.45,85.57A254.24,254.24,0,0,0,0,240.9H94.69a160.47,160.47,0,0,1,36.7-88.4Z"/><path class="cls-1" d="M417.31,240.9H512A254.24,254.24,0,0,0,447.55,85.57L380.61,152.5A160.47,160.47,0,0,1,417.31,240.9Z"/><path class="cls-1" d="M417.29,270.9a159.9,159.9,0,0,1-16.49,57.83c7.6,11.73,13.95,21.65,18.14,28.23a45.06,45.06,0,0,1-18.48,64.74l15.59,15.59a15,15,0,0,0,21.25,0A254.57,254.57,0,0,0,512,270.9Z"/><path class="cls-1" d="M94.71,270.9H0A254.57,254.57,0,0,0,74.7,437.29a15,15,0,0,0,21.25,0l45.51-45.51a15,15,0,0,0,0-21.25A161.07,161.07,0,0,1,94.71,270.9Z"/><path class="cls-1" d="M426.33,64.36A254.28,254.28,0,0,0,271,0V94.67a160.46,160.46,0,0,1,88.39,36.63Z"/><path class="cls-2" d="M289.33,222.82a47.14,47.14,0,1,0-66.66,66.66C245.89,312.69,360,385.55,372.92,393.77a15,15,0,0,0,20.71-20.7C385.4,360.13,312.55,246,289.33,222.82Z"/></g></g></svg>