<svg xmlns="http://www.w3.org/2000/svg" viewBox="0 0 512 512"><defs><style>.cls-1{fill:#4989d6;}.cls-2{fill:#8fc1ae;}</style></defs><g id="Layer_2" data-name="Layer 2"><g id="Capa_1" data-name="Capa 1"><path class="cls-1" d="M250,193.35A59.53,59.53,0,1,0,290,297q2.32-2.49,4.77-4.87A59.49,59.49,0,0,0,250,193.35Z"/><path class="cls-1" d="M160.47,252.88A89.53,89.53,0,1,1,339,262.45a144.6,144.6,0,0,1,33.47-9.8A122.49,122.49,0,1,0,250,375.37c.74,0,1.47,0,2.21,0a144.22,144.22,0,0,1,9.13-33.64,88.53,88.53,0,0,1-11.34.72,89.63,89.63,0,0,1-89.53-89.53Z"/><path class="cls-2" d="M396.34,512a115.66,115.66,0,1,0-79.76-199.33q-2.58,2.88-5.42,5.53A115.6,115.6,0,0,0,396.35,512ZM381.42,317.34h30v64h36.93v30H381.42Z"/><path class="cls-1" d="M251,405.35l-1,0c-84.08,0-152.49-68.41-152.49-152.49S165.92,100.38,250,100.38c83.4,0,151.37,67.3,152.47,150.45A145.2,145.2,0,0,1,500,294.13v-92l-37.84-5.84A216.38,216.38,0,0,0,438,138l22.65-30.91L393,39.39,362,62a216.28,216.28,0,0,0-58.35-24.18L297.85,0h-95.7l-5.84,37.85A216.38,216.38,0,0,0,138,62L107.06,39.39,39.39,107.06,62,138a216.06,216.06,0,0,0-24.19,58.34L0,202.15v95.7l37.85,5.84A216.11,216.11,0,0,0,62,362L39.39,392.94l67.67,67.68L138,438a216.38,216.38,0,0,0,58.34,24.19L202.15,500h92A145.19,145.19,0,0,1,251,405.35Z"/></g></g></svg>