<?xml version="1.0" encoding="utf-8"?>
<!-- Generator: Adobe Illustrator 25.1.0, SVG Export Plug-In . SVG Version: 6.00 Build 0)  -->
<svg version="1.1" id="Layer_1_1_" xmlns="http://www.w3.org/2000/svg" xmlns:xlink="http://www.w3.org/1999/xlink" x="0px" y="0px"
	 viewBox="0 0 512 512" style="enable-background:new 0 0 512 512;" xml:space="preserve">
<style type="text/css">
	.st0{fill:#8FC1AE;}
	.st1{fill:#1B67D8;}
</style>
<path class="st0" d="M296,464h128v32H296V464z"/>
<path class="st0" d="M360,256c-4.4,0-8,3.6-8,8v184h16V264C368,259.6,364.4,256,360,256z"/>
<path class="st0" d="M240,392h96V264c0-13.2,10.8-24,24-24s24,10.8,24,24v128h96V232H240V392z"/>
<path class="st1" d="M240,80V64h-24c-26.5,0-48,21.5-48,48v16h24C218.5,128,240,106.5,240,80z"/>
<path class="st1" d="M256,80c0,19.1-8.5,36.3-21.8,48h5.8c26.5,0,48-21.5,48-48V64h-32V80z"/>
<path class="st1" d="M232,408c-4.4,0-8-3.6-8-8v-62v-3.8v-48.1v-6.4V224c0-4.4,3.6-8,8-8h48v-72H162.2l-10.2,6.1V112
	c0-35.3,28.7-64,64-64h61.3c-5.7-8.8-21-16-45.3-16h-64c-0.6,0-1.2,0-1.8,0.1c-14.2,0.2-34.1,0.8-38.2,0.8c-9.5,2-18.1,7.3-24,15.2
	c-5.2,6.9-8,15.4-8,24v96c-13.2,0-24,10.8-24,24v32c0,13.2,10.8,24,24,24h26.7c2.3,6,6.1,11.4,11.1,15.8l34.2,18.7v43.1
	c-17,4.2-49.3,13.4-64,18.2c-28.6,10.4-64,26.1-64,32.2l0,0v120h48h16h76.1H224v-32c0-8.8-7.2-16-16-16h-47.2l-11.8,2.4l-16.2-13.1
	l25.6-5.1c0.5-0.1,1-0.2,1.6-0.2h48c17.6,0,32,14.4,32,32v32h40v-40c0-4.4,3.6-8,8-8h48v-40H232V408z M240,178c7.7,0,14,6.3,14,14
	s-6.3,14-14,14s-14-6.3-14-14S232.3,178,240,178z M160,206c-7.7,0-14-6.3-14-14s6.3-14,14-14s14,6.3,14,14S167.7,206,160,206z"/>
<path class="st1" d="M282.2,128h5.8c26.5,0,48-21.5,48-48V64h-32v16C304,99.1,295.5,116.3,282.2,128z"/>
</svg>
