<svg xmlns="http://www.w3.org/2000/svg" viewBox="0 0 100 100"><defs><style>.cls-1{fill:#4e2fb8;}.cls-2{fill:#fff;}.cls-3{fill:#53c1de;opacity:0.8;}</style></defs><g id="Layer_2" data-name="Layer 2"><g id="Capa_1" data-name="Capa 1"><circle class="cls-1" cx="50" cy="50" r="50"/><path class="cls-2" d="M71.05,39.78c-.67-.24-1.38-.46-2.1-.67,4.57-18.43-5.64-24-18.92-11C36.33,15,26.39,21,31.08,39.07c-18,4.86-18.14,16.82,0,22C26.32,79.11,36.69,85,50.12,72c13.22,13,23.49,7.1,19-11C85.05,56.46,88,45.38,71.05,39.78Zm-17.56-11c11.7-10.11,15.87-3.83,12.76,9.65A66.38,66.38,0,0,0,57.51,37,64.11,64.11,0,0,0,52,30.14Q52.74,29.42,53.49,28.76ZM36.62,53.3c1.18,2.27,2.51,4.58,3.91,6.73a59,59,0,0,1-6-1C35.08,57.2,35.79,55.26,36.62,53.3Zm0-6.57c-.81-1.93-1.51-3.82-2.08-5.65,1.87-.42,3.86-.76,5.93-1C39.1,42.2,37.78,44.47,36.62,46.73ZM38.1,50A80.62,80.62,0,0,1,44.05,39.7,80.25,80.25,0,0,1,56,39.7a88.52,88.52,0,0,1,6,10.27,90.64,90.64,0,0,1-6,10.35,89.16,89.16,0,0,1-11.9,0A80.37,80.37,0,0,1,38.1,50Zm23.44,6.65c.66-1.16,1.29-2.31,1.89-3.47a56.47,56.47,0,0,1,2.19,5.75,59.72,59.72,0,0,1-6.09,1C60.21,58.91,60.88,57.8,61.54,56.66Zm1.86-9.93c-1.17-2.22-2.5-4.54-3.86-6.67,2.08.27,4.08.62,6,1C64.93,42.91,64.23,44.8,63.4,46.73ZM50,32.14a58.55,58.55,0,0,1,3.85,4.64c-2.55-.12-5.18-.12-7.73,0C47.42,35.1,48.73,33.55,50,32.14ZM35,24.18c2.08-1.61,8.73,1.53,13.1,6A66.51,66.51,0,0,0,42.51,37a67.52,67.52,0,0,0-8.72,1.36C32.18,33,32.53,25.07,35,24.18Zm-3.19,34.2c-14-4.25-16.63-11.67.05-16.62A64.65,64.65,0,0,0,35,50,69.42,69.42,0,0,0,31.79,58.38ZM46.92,71.11c-10.83,9.29-16.77,5.72-13.17-9.35A66.58,66.58,0,0,0,42.56,63,70,70,0,0,0,48.16,70C47.75,70.36,47.33,70.75,46.92,71.11ZM50.11,68c-1.32-1.42-2.64-3-3.93-4.7,2.54.1,5.22.1,7.77,0C52.67,65,51.39,66.54,50.11,68Zm17,3.88c-1.3,8.49-9.36,3.29-15-1.88a64.66,64.66,0,0,0,5.47-7,64.51,64.51,0,0,0,8.85-1.36A25.65,25.65,0,0,1,67.06,71.83Zm2.37-13.94-1.1.35A65.44,65.44,0,0,0,65,50,65.62,65.62,0,0,0,68.2,41.8C81.82,45.83,84.66,52.68,69.43,57.89Z"/><circle class="cls-3" cx="50" cy="49.95" r="5.83" transform="translate(-10.14 12.82) rotate(-13.28)"/></g></g></svg>