<?xml version="1.0" encoding="utf-8"?>
<!-- Generator: Adobe Illustrator 25.1.0, SVG Export Plug-In . SVG Version: 6.00 Build 0)  -->
<svg version="1.1" id="Layer_35" xmlns="http://www.w3.org/2000/svg" xmlns:xlink="http://www.w3.org/1999/xlink" x="0px" y="0px"
	 viewBox="0 0 512 512" style="enable-background:new 0 0 512 512;" xml:space="preserve">
<style type="text/css">
	.st0{fill:#8FC1AE;}
	.st1{fill:#1B67D8;}
</style>
<path class="st0" d="M260.4,502.8c136.1,0,246.8-110.7,246.8-246.8S396.5,9.2,260.4,9.2S13.7,119.9,13.7,256v10.3H4.8l29.5,35.4
	l29.5-35.4h-8.9V256c0-113.4,92.3-205.7,205.7-205.7S466.1,142.6,466.1,256s-92.3,205.7-205.7,205.7h-72v21.5v18.3"/>
<path class="st1" d="M286.8,390.8c62.4,0,113.1-50.7,113.1-113.1s-50.7-113.1-113.1-113.1h-10.3v102.8H173.7v10.3
	C173.7,340,224.5,390.8,286.8,390.8z M317.7,308.5h20.6v20.6h-20.6V308.5z M276.6,308.5h20.6v20.6h-20.6V308.5z M235.4,308.5H256
	v20.6h-20.6V308.5z"/>
<path class="st1" d="M256,123.4h-10.3c-62.4,0-113.1,50.7-113.1,113.1v10.3H256V123.4z"/>
</svg>
