<svg xmlns="http://www.w3.org/2000/svg" viewBox="0 0 460.78 512"><defs><style>.cls-1{fill:#8fc1ae;}.cls-2{fill:#1b67d8;}</style></defs><g id="Layer_2" data-name="Layer 2"><g id="Capa_1" data-name="Capa 1"><path class="cls-1" d="M304.05,323.2a194.29,194.29,0,0,0,35.49-91.81l-109.15-31-109.15,31a194.29,194.29,0,0,0,35.49,91.81,197,197,0,0,0,73.66,62.12A196.88,196.88,0,0,0,304.05,323.2Z"/><path class="cls-1" d="M230.39,175l110.43,31.4V155.78l-110.43-31.4L120,155.78v50.65Z"/><path class="cls-2" d="M245.68,0V63.59l153.94,43.77V197.1A274.75,274.75,0,0,1,347.7,358.52a277.87,277.87,0,0,1-102,86.7V512A336.82,336.82,0,0,0,397.35,394.24,335.54,335.54,0,0,0,460.78,197.1V61.17Z"/><path class="cls-2" d="M215.1,445.22a277.76,277.76,0,0,1-102-86.7A274.76,274.76,0,0,1,61.17,197.09V107.36L215.1,63.59V0L0,61.17V197.09A338.07,338.07,0,0,0,215.1,512Z"/></g></g></svg>