<svg xmlns="http://www.w3.org/2000/svg" viewBox="0 0 512 452.81"><defs><style>.cls-1{fill:#1b67d8;}.cls-1,.cls-2{fill-rule:evenodd;}.cls-2{fill:#8fc1ae;}</style></defs><g id="Layer_2" data-name="Layer 2"><g id="Capa_1" data-name="Capa 1"><path class="cls-1" d="M93.46,75.85l76.86,11.21,25.56,90.08L105.24,175,74.92,100.34,55.68,86.41A37.84,37.84,0,1,1,75,60.32c-.12.63-.26,1.25-.42,1.87L93.46,75.85Z"/><path class="cls-1" d="M391.11,382.08a35.37,35.37,0,1,1-35.36,35.36,35.36,35.36,0,0,1,35.36-35.36Z"/><path class="cls-1" d="M208.69,382.08a35.37,35.37,0,1,1-35.36,35.36,35.36,35.36,0,0,1,35.36-35.36Z"/><path class="cls-2" d="M403.65,216.66a108.33,108.33,0,1,1,76.63-184.9L400.05,112,380.17,92.1a15.38,15.38,0,0,0-21.75,21.74l30.76,30.76a15.38,15.38,0,0,0,21.74,0l88-88a108.35,108.35,0,0,1-95.23,160Z"/><path class="cls-1" d="M183.75,312.18l48.65-6.37L204.64,208l-86.83-2.08,36.47,89.78A44.75,44.75,0,0,0,147.56,306c-13.77,29.16,7.84,62.25,39.9,62.25h241a15.38,15.38,0,0,0,0-30.76h-241A12.83,12.83,0,0,1,176,331.29a12.69,12.69,0,0,1,7.73-19.11Z"/><path class="cls-1" d="M203.6,91.92l61.17,8.93a139.24,139.24,0,0,0,19.31,78.4L228,177.91l-24.4-86Z"/><path class="cls-1" d="M431.76,244.51a132,132,0,0,1-71.16,43.83l-8.39-50.87a138,138,0,0,0,79.55,7Z"/><path class="cls-1" d="M330.29,293l-12.41-75.22q-4.45-3.47-8.58-7.28l-72.54-1.73,26.4,93Z"/></g></g></svg>