<?xml version="1.0" encoding="utf-8"?>
<!-- Generator: Adobe Illustrator 25.1.0, SVG Export Plug-In . SVG Version: 6.00 Build 0)  -->
<svg version="1.1" id="Layer_1" xmlns="http://www.w3.org/2000/svg" xmlns:xlink="http://www.w3.org/1999/xlink" x="0px" y="0px"
	 viewBox="0 0 119.9 17" style="enable-background:new 0 0 119.9 17;" xml:space="preserve">
<style type="text/css">
	.st0{fill:#39B54A;}
</style>
<g>
	<polygon class="st0" points="8.9,0 11.7,5.6 17.9,6.5 13.4,10.8 14.5,17 8.9,14.1 3.4,17 4.5,10.8 0,6.5 6.2,5.6 	"/>
	<polygon class="st0" points="34.4,0 37.2,5.6 43.4,6.5 38.9,10.8 40,17 34.4,14.1 28.9,17 30,10.8 25.5,6.5 31.7,5.6 	"/>
	<polygon class="st0" points="60,0 62.7,5.6 68.9,6.5 64.4,10.8 65.5,17 60,14.1 54.4,17 55.5,10.8 51,6.5 57.2,5.6 	"/>
	<polygon class="st0" points="85.5,0 88.2,5.6 94.4,6.5 89.9,10.8 91,17 85.5,14.1 79.9,17 81,10.8 76.5,6.5 82.7,5.6 	"/>
	<polygon class="st0" points="111,0 113.7,5.6 119.9,6.5 115.4,10.8 116.5,17 111,14.1 105.5,17 106.5,10.8 102,6.5 108.2,5.6 	"/>
</g>
</svg>
