<svg xmlns="http://www.w3.org/2000/svg" viewBox="0 0 296.84 368.04"><defs><style>.cls-1{fill:#1b67d8;}.cls-2{fill:#8fc1ae;}</style></defs><g id="Layer_2" data-name="Layer 2"><g id="Capa_1" data-name="Capa 1"><path class="cls-1" d="M77.57,164c16.86,37.19,52.94,53.38,70.85,53.38,11.78,0,31.41-7,48.27-22.37q-9.25.65-19.8.65c-1.65,0-3.38,0-5.23,0a20.51,20.51,0,0,1-12.51,4.28h-15a20.5,20.5,0,1,1,0-41h15a20.44,20.44,0,0,1,14.25,5.75c1.25,0,2.48,0,3.68,0,19.37,0,32.13-1.77,40.48-3.92a22.2,22.2,0,0,1-1.68-8.52v-52a22.37,22.37,0,0,1,5.48-14.6c-1.85-14.41-5.21-25.42-10.23-33.53-10.33-16.73-30.26-24.52-62.71-24.52-26.92,0-45.51,5.59-56.83,17.08-8.77,8.91-13.86,21.63-16.24,40.83A22.3,22.3,0,0,1,81,100.21v52A22.06,22.06,0,0,1,77.57,164Z"/><path class="cls-2" d="M40.69,164.46h18A12.28,12.28,0,0,0,71,152.19v-52a12.26,12.26,0,0,0-6.11-10.6c4-42.56,20.44-72,83.57-72,36.25,0,58.88,9.3,71.22,29.26,7.18,11.62,10.63,26.62,12.24,42.85a12.25,12.25,0,0,0-6,10.54v52a12.26,12.26,0,0,0,9.56,12c-7.93,5.19-24.35,10.49-58.36,10.49-2.75,0-5.62,0-8.61-.11a10.5,10.5,0,0,0-9.32-5.66h-15a10.5,10.5,0,1,0,0,21h15a10.5,10.5,0,0,0,8.51-4.36c3.16.08,6.25.13,9.24.13,38.32,0,62.69-6.55,72.56-19.53.42-.55.8-1.1,1.15-1.64h5.54a12.27,12.27,0,0,0,12.27-12.27v-52a12.27,12.27,0,0,0-12.27-12.27h-6.77c-1.9-19.61-6.12-36.3-14.8-50.35C219,12.3,190.76,0,148.42,0S77.89,12.3,62.26,37.59c-8.68,14-12.9,30.74-14.8,50.35H40.69a12.27,12.27,0,0,0-12.27,12.27v52A12.27,12.27,0,0,0,40.69,164.46Z"/><path class="cls-1" d="M296.77,317.3c-4.08-25.37-12.48-58-29.33-69.65-11.48-7.92-51.58-29.35-68.71-38.5l-.36-.19a5.58,5.58,0,0,0-6.09.53,72.92,72.92,0,0,1-29.23,14.12,5.61,5.61,0,0,0-4,3.48l-10.61,28-10.61-28a5.61,5.61,0,0,0-4-3.48,72.86,72.86,0,0,1-29.23-14.12,5.6,5.6,0,0,0-6.1-.53c-16.93,9-57.55,30.92-69,38.65C10,260.68,1.57,308,.07,317.3a5.63,5.63,0,0,0,.25,2.76c.7,2,18.49,48,148.1,48s147.4-46,148.1-48A5.63,5.63,0,0,0,296.77,317.3Zm-60.35-29.13H185.09V277.36h51.33Z"/></g></g></svg>