<svg xmlns="http://www.w3.org/2000/svg" viewBox="0 0 100 100"><defs><style>.cls-1{fill:#4e2fb8;}.cls-2{fill:#fff;}</style></defs><g id="Layer_2" data-name="Layer 2"><g id="Capa_1" data-name="Capa 1"><circle class="cls-1" cx="50" cy="50" r="50"/><path class="cls-2" d="M69.81,21c-4.35.15-8.15,2.55-11,5.86a37.06,37.06,0,0,0-6.71,12.36c-2.69-2.2-4.76-5-9.07-6.29A11.09,11.09,0,0,0,33,34.8a9.06,9.06,0,0,0-3.07,4.47c-1.29,4.2,1.36,7.94,2.56,9.29l2.63,2.82a4,4,0,0,1,1.21,4.06,4.85,4.85,0,0,1-6.18,2.85c-1.24-.38-3-1.3-2.63-2.61a14,14,0,0,1,.75-1.39,6.81,6.81,0,0,0,.34-.87,3.48,3.48,0,0,0-2-4.36,2.92,2.92,0,0,0-4,2c-.74,2.42.42,6.82,6.63,8.74,7.29,2.24,13.45-1.73,14.32-6.9.55-3.24-.91-5.65-3.59-8.74l-2.18-2.42a4,4,0,0,1-.41-5.3c1.15-1.46,2.8-2.08,5.49-1.35,3.94,1.07,5.69,3.79,8.61,6-1.2,4-2,7.93-2.71,11.5l-.43,2.66c-2.09,11-3.69,17-7.84,20.45a6.71,6.71,0,0,1-3.83,1.54,1.1,1.1,0,0,1-1.26-.9c0-.66.54-1,.91-1.27a2.29,2.29,0,0,0,1.33-2.41,3.64,3.64,0,0,0-3.9-3.47,4.55,4.55,0,0,0-4.21,4.6c.11,3,2.93,5.3,7.19,5.16,2.27-.08,7.36-1,12.37-7,5.83-6.83,7.46-14.65,8.68-20.38l1.37-7.56c.76.09,1.57.15,2.46.17,7.26.16,10.89-3.61,11-6.34,0-1.66-1.09-3.29-2.66-3.25A3,3,0,0,0,67.05,37c-.33,1.52,2.31,2.9.25,4.24-1.47.95-4.1,1.62-7.8,1.07l.67-3.72c1.38-7.06,3.07-15.74,9.5-16,.47,0,2.18,0,2.22,1.15,0,.38-.08.48-.52,1.35a3.07,3.07,0,0,0-.6,1.91A3,3,0,0,0,74.18,30c2.66-.09,3.42-2.67,3.38-4-.11-3.12-3.4-5.09-7.75-4.94Z"/></g></g></svg>