<svg xmlns="http://www.w3.org/2000/svg" viewBox="0 0 512 512"><defs><style>.cls-1{fill:#fff;}.cls-2{fill:#d6e9f8;}.cls-3{fill:#f25a3c;}.cls-4{fill:#e43539;}</style></defs><g id="Layer_2" data-name="Layer 2"><g id="Capa_1" data-name="Capa 1"><path class="cls-1" d="M507.61,145.57,366.43,4.39A15,15,0,0,0,355.83,0H156.17a15,15,0,0,0-10.6,4.39L4.39,145.57A15,15,0,0,0,0,156.17V355.83a15,15,0,0,0,4.39,10.6L145.57,507.6a15,15,0,0,0,10.6,4.4H355.82a15,15,0,0,0,10.61-4.4L507.6,366.43a15,15,0,0,0,4.4-10.61V156.17a15,15,0,0,0-4.39-10.6Z"/><path class="cls-2" d="M512,156.17V355.83a15,15,0,0,1-4.39,10.6L366.43,507.61a15,15,0,0,1-10.6,4.39H256V0h99.83a15,15,0,0,1,10.6,4.39L507.61,145.57A15,15,0,0,1,512,156.17Z"/><path class="cls-3" d="M237.17,106h37.66a15,15,0,0,1,15,16.13l-12.8,170A15,15,0,0,1,262,306H250a15,15,0,0,1-15-13.87l-12.79-170a15,15,0,0,1,15-16.13Z"/><path class="cls-4" d="M289.79,122.13l-12.8,170A15,15,0,0,1,262,306h-6V106h18.83a15,15,0,0,1,15,16.13Z"/><path class="cls-3" d="M226.05,376v.1a29.95,29.95,0,0,0,59.9,0V376a29.95,29.95,0,0,0-59.9,0Z"/><path class="cls-4" d="M286,376v.1A29.94,29.94,0,0,1,256,406V346A30,30,0,0,1,286,376Z"/></g></g></svg>