<?xml version="1.0" encoding="utf-8"?>
<!-- Generator: Adobe Illustrator 25.1.0, SVG Export Plug-In . SVG Version: 6.00 Build 0)  -->
<svg version="1.1" id="Layer_1" xmlns="http://www.w3.org/2000/svg" xmlns:xlink="http://www.w3.org/1999/xlink" x="0px" y="0px"
	 viewBox="0 0 100 100" style="enable-background:new 0 0 100 100;" xml:space="preserve">
<style type="text/css">
	.st0{fill:#4E2FB8;}
	.st1{opacity:0.7;fill:#FFFFFF;}
</style>
<g id="Layer_2_1_">
	<g id="Capa_1">
		<circle class="st0" cx="50" cy="50" r="50"/>
		<path class="st1" d="M11.6,50c0,14.7,8.4,28.1,21.6,34.5L14.9,34.4C12.7,39.3,11.6,44.6,11.6,50z M76,48.1
			c-0.1-3.8-1.2-7.4-3.2-10.6c-2-3.2-3.8-5.9-3.8-9c-0.1-3.6,2.8-6.7,6.4-6.8c0.2,0,0.3,0,0.5,0C60.3,7.3,36,8.3,21.7,23.9
			c-1.4,1.5-2.7,3.2-3.8,4.9c0.9,0,1.8,0,2.5,0c4,0,10.2-0.5,10.2-0.5c0.9,0,1.6,0.6,1.6,1.5c0,0.8-0.6,1.5-1.4,1.6
			c0,0-2.1,0.3-4.4,0.4l14,41.7l8.4-25.2l-6-16.4c-2.1-0.1-4-0.4-4-0.4c-0.9-0.1-1.5-0.9-1.4-1.8c0.1-0.8,0.8-1.4,1.6-1.4
			c0,0,6.4,0.5,10.1,0.5c4,0,10.2-0.5,10.2-0.5c0.9,0,1.6,0.7,1.6,1.5c0,0.8-0.6,1.5-1.4,1.6c0,0-2.1,0.3-4.4,0.4l13.9,41.3L73,60.5
			C74.7,55.2,75.9,51.4,76,48.1L76,48.1z M50.7,53.4L39.2,86.9c7.7,2.3,16,2.1,23.6-0.6c-0.1-0.2-0.2-0.4-0.3-0.5L50.7,53.4
			L50.7,53.4z M83.7,31.6c0.2,1.3,0.3,2.6,0.3,4c-0.1,4.7-1.1,9.4-2.9,13.8l-11.7,34C87.3,72.8,93.7,49.8,83.7,31.6z M50,5.3
			C25.3,5.3,5.3,25.3,5.3,50s20,44.7,44.7,44.7s44.7-20,44.7-44.7C94.7,25.3,74.7,5.3,50,5.3z M50,92.8C26.4,92.8,7.3,73.6,7.3,50
			C7.3,26.4,26.4,7.3,50,7.3c23.6,0,42.7,19.1,42.7,42.7C92.7,73.6,73.6,92.7,50,92.8L50,92.8z"/>
	</g>
</g>
</svg>
